<!DOCTYPE svg PUBLIC "-//W3C//DTD SVG 20010904//EN" "http://www.w3.org/TR/2001/REC-SVG-20010904/DTD/svg10.dtd">
<svg version="1.0" xmlns="http://www.w3.org/2000/svg" width="440px" height="440px" viewBox="0 0 4400 4400" preserveAspectRatio="xMidYMid meet">
<g id="layer101" fill="#5a2320" stroke="none">
<path d="M0 2200 l0 -2200 2200 0 2200 0 0 2200 0 2200 -2200 0 -2200 0 0 -2200z"/>
</g>
<g id="layer102" fill="#603835" stroke="none">
<path d="M0 2200 l0 -2200 2200 0 2200 0 0 2200 0 2200 -2200 0 -2200 0 0 -2200z m391 260 c5 -8 13 -26 19 -40 5 -14 16 -37 24 -52 9 -16 11 -30 5 -33 -5 -4 -9 -3 -9 2 0 4 -13 22 -28 38 -18 19 -34 53 -44 92 -17 69 -12 91 10 41 7 -18 18 -40 23 -48z"/>
</g>
<g id="layer103" fill="#6d3f41" stroke="none">
<path d="M0 2200 l0 -2200 2200 0 2200 0 0 2200 0 2200 -944 0 -944 0 -7 -104 c-4 -57 -4 -118 -1 -137 4 -23 3 -28 -3 -14 -15 35 -26 -153 -26 -442 0 -175 -4 -273 -10 -273 -5 0 -3 -5 5 -11 11 -8 2 -9 -33 -5 -55 7 -98 25 -59 26 12 0 22 4 22 9 0 5 9 7 20 4 19 -5 20 0 20 148 0 85 5 213 10 284 5 72 12 195 16 275 3 80 10 163 15 185 5 22 9 43 9 48 0 4 -560 7 -1245 7 l-1245 0 0 -2200z m897 2073 c-4 -3 -7 0 -7 7 0 7 3 10 7 7 3 -4 3 -10 0 -14z m1463 -252 c17 -40 30 -83 29 -95 0 -14 -2 -16 -6 -6 -24 69 -80 190 -97 210 -14 17 -11 16 12 -5 19 -18 45 -62 62 -104z m-202 37 c-11 -29 -24 -62 -29 -73 -4 -11 -13 -47 -20 -80 -6 -33 -15 -78 -20 -100 -4 -22 -8 -74 -9 -116 0 -55 -4 -80 -15 -89 -19 -16 -19 -9 1 172 10 86 24 161 35 187 10 24 19 50 19 57 0 14 46 94 55 94 2 0 -5 -24 -17 -52z m-1208 -205 c4 -18 5 -33 0 -33 -12 0 -19 23 -24 82 -5 49 -5 50 5 18 6 -19 14 -50 19 -67z m1457 5 c15 -55 18 -278 3 -278 -6 0 -10 44 -10 123 0 67 -4 139 -9 160 -12 51 2 47 16 -5z m-1502 -86 c12 -9 16 -42 5 -42 -22 0 -40 14 -40 31 0 19 17 25 35 11z m83 -117 c0 -16 -2 -15 -8 5 -11 34 -11 60 0 35 5 -11 8 -29 8 -40z m-373 -57 l0 -72 31 -8 c32 -8 49 -31 38 -50 -3 -5 -17 -7 -30 -4 -13 4 -24 2 -25 -4 -3 -43 -1 -99 4 -107 3 -5 1 -15 -5 -23 -8 -12 -9 -12 -4 3 7 21 -10 23 -18 1 -9 -24 -7 -36 5 -28 15 9 -21 -54 -39 -69 -8 -6 -28 -11 -47 -12 -26 -2 -32 1 -28 14 8 23 34 51 47 51 6 0 4 -4 -4 -10 -8 -5 -12 -11 -9 -15 3 -3 14 4 24 15 10 11 13 20 7 20 -7 0 -12 5 -12 11 0 6 7 8 16 5 11 -4 15 -2 11 8 -3 8 1 17 9 20 8 3 14 12 14 21 0 8 5 15 10 15 6 0 10 15 9 33 0 17 -3 26 -6 20 -2 -7 -9 -13 -15 -13 -5 0 0 12 11 26 25 31 27 48 6 40 -8 -3 -15 -2 -15 3 0 5 -19 13 -42 19 -36 9 -45 8 -69 -9 -35 -24 -39 -24 -39 4 0 45 12 51 73 33 76 -22 81 -21 73 12 -23 93 -23 111 -2 115 12 2 21 5 21 6 0 0 0 -31 0 -71z m342 55 c-4 -3 -7 0 -7 7 0 7 3 10 7 7 3 -4 3 -10 0 -14z m10 -35 c-3 -8 -6 -5 -6 6 -1 11 2 17 5 13 3 -3 4 -12 1 -19z m46 -39 c7 0 32 -2 57 -4 25 -1 52 -3 60 -4 8 -1 10 -4 5 -10 -6 -5 -47 -11 -91 -15 -68 -5 -83 -4 -88 9 -3 8 -1 15 4 15 6 0 9 3 9 8 -3 19 2 25 11 12 8 -13 10 -12 11 5 1 17 2 17 6 3 2 -10 10 -18 16 -19z m-93 -29 c-14 -10 -21 -22 -17 -26 4 -5 -3 -13 -15 -20 -25 -13 -62 0 -87 30 -17 20 -7 21 12 1 13 -12 19 -12 44 -1 88 40 98 43 63 16z m-377 -74 c-3 -4 -9 -3 -13 4 -6 9 -11 7 -19 -6 -6 -11 -11 -13 -11 -6 0 22 23 40 36 28 7 -6 10 -15 7 -20z m50 -7 c4 -3 2 -11 -6 -18 -12 -9 -14 -7 -14 14 0 14 2 22 6 18 3 -4 10 -10 14 -14z m70 -30 c5 -3 2 -9 -7 -12 -12 -5 -16 0 -16 15 0 12 3 17 8 12 4 -5 11 -12 15 -15z m80 -53 c23 -6 77 -48 77 -61 0 -4 -16 7 -35 24 -20 17 -46 31 -58 31 -18 -1 -15 -5 16 -21 20 -11 37 -25 37 -32 0 -8 -3 -9 -8 -1 -12 19 -49 34 -81 34 -23 0 -29 4 -25 15 4 8 1 15 -5 15 -6 0 -11 4 -11 10 0 5 7 7 15 4 8 -4 15 -1 15 4 0 18 35 19 38 1 2 -10 13 -20 25 -23z m1778 7 c13 -17 13 -17 -6 -3 -11 8 -22 16 -24 17 -2 2 0 3 6 3 6 0 17 -8 24 -17z m103 -14 c-3 -5 -1 -9 4 -9 5 0 34 -23 63 -51 59 -56 52 -56 -27 2 -29 21 -64 41 -79 45 l-26 6 23 13 c25 12 52 9 42 -6z m-1543 -22 c-10 -9 -11 -8 -5 6 3 10 9 15 12 12 3 -3 0 -11 -7 -18z m-24 -35 c-15 -17 -15 -20 -1 -38 8 -10 12 -12 8 -4 -5 12 -4 12 6 3 23 -21 2 -30 -82 -36 -46 -3 -121 -17 -168 -31 -47 -15 -92 -28 -102 -30 -51 -13 -175 -85 -229 -134 -34 -31 -57 -48 -51 -37 6 11 27 33 46 49 25 20 34 35 31 47 -4 12 1 20 17 25 13 3 25 10 28 14 3 4 23 17 45 29 34 18 41 19 43 6 3 -13 7 -13 33 0 36 19 37 27 2 20 -16 -3 5 7 45 22 72 27 74 28 68 57 -6 29 -6 29 8 11 9 -11 16 -28 16 -37 0 -10 3 -18 6 -18 20 0 94 24 94 30 0 5 9 6 20 3 11 -3 20 -1 20 5 0 6 8 8 18 6 10 -3 29 7 46 25 31 33 61 44 33 13z m1768 -152 c3 -5 4 -10 1 -10 -3 0 -8 5 -11 10 -3 6 -4 10 -1 10 3 0 8 -4 11 -10z m35 -75 c0 -5 -5 -3 -10 5 -5 8 -10 20 -10 25 0 6 5 3 10 -5 5 -8 10 -19 10 -25z m34 -67 c3 -16 2 -28 -3 -28 -5 0 -12 11 -15 24 -3 13 -9 32 -12 43 -6 16 -5 16 8 3 9 -8 18 -27 22 -42z m-2464 -42 c0 -3 -5 -8 -12 -12 -7 -4 -8 -3 -4 4 7 12 16 16 16 8z m-20 -30 c0 -3 -5 -8 -12 -12 -7 -4 -8 -3 -4 4 7 12 16 16 16 8z m2529 -175 c11 -21 36 -28 28 -8 -4 11 0 13 13 10 10 -3 21 -14 23 -25 5 -18 2 -19 -30 -13 -28 5 -35 4 -30 -8 3 -8 8 -40 12 -73 6 -54 5 -57 -9 -40 -9 11 -19 36 -22 55 -4 20 -11 42 -17 49 -5 6 -6 12 -1 12 5 0 5 4 -1 8 -6 4 -8 42 -6 92 l4 85 14 -65 c8 -36 17 -71 22 -79z m-2 102 c-4 -3 -7 0 -7 7 0 7 3 10 7 7 3 -4 3 -10 0 -14z m-2543 -429 c20 -43 41 -87 46 -96 6 -11 6 -19 -2 -24 -12 -8 -39 24 -63 74 -19 39 -45 170 -44 220 1 30 4 24 14 -29 7 -36 29 -102 49 -145z m2576 -184 c-13 -117 -31 -200 -41 -200 -18 0 -20 23 -5 73 22 80 46 217 48 283 l2 59 4 -60 c2 -33 -2 -103 -8 -155z"/>
</g>
<g id="layer104" fill="#70433f" stroke="none">
<path d="M0 2200 l0 -2200 2200 0 2200 0 0 2200 0 2200 -945 0 -945 0 -1 -42 c-2 -82 -9 -183 -14 -196 -3 -8 0 -10 7 -6 8 5 9 0 4 -17 -4 -13 -8 -32 -7 -41 0 -10 -5 -18 -10 -18 -6 0 -9 -19 -8 -43 2 -24 1 -47 -2 -52 -2 -6 -4 -133 -4 -282 0 -175 -4 -273 -10 -273 -5 0 -3 -5 5 -10 21 -14 -24 -13 -75 1 -39 11 -40 12 -15 22 14 5 33 9 43 8 15 -2 17 11 17 146 0 81 5 213 10 293 5 80 12 204 15 275 3 72 10 152 15 178 6 26 10 50 10 52 0 3 -360 5 -800 5 -704 0 -800 -2 -800 -15 0 -8 -7 -15 -15 -15 -8 0 -15 7 -15 15 0 13 -54 15 -430 15 l-430 0 0 -2200z m890 2120 c0 -24 -25 -27 -34 -4 -3 8 -2 12 3 9 5 -3 12 -1 16 5 10 16 15 12 15 -10z m7 -47 c-4 -3 -7 0 -7 7 0 7 3 10 7 7 3 -4 3 -10 0 -14z m1464 -251 c17 -42 29 -85 26 -98 -2 -13 -1 -24 2 -24 4 0 12 -19 18 -42 15 -56 18 -281 3 -276 -6 2 -11 55 -13 144 -1 96 -6 146 -15 156 -7 9 -10 23 -6 31 7 19 -60 182 -90 217 -17 20 -15 19 11 -4 19 -17 45 -60 64 -104z m-187 73 c-4 -8 -1 -15 6 -15 6 0 8 -5 4 -11 -5 -8 -8 -8 -14 0 -4 7 -12 -7 -20 -31 -8 -24 -18 -49 -23 -55 -6 -9 -5 -13 4 -13 10 0 11 -2 2 -8 -13 -8 -20 -36 -27 -97 -2 -22 -9 -53 -15 -68 -6 -16 -11 -63 -11 -105 0 -73 -11 -114 -26 -100 -12 13 27 320 47 367 10 24 19 50 19 57 0 8 11 32 25 54 26 41 39 52 29 25z m-1230 -214 c7 -34 9 -61 5 -61 -9 0 -19 26 -19 53 0 16 -3 18 -9 9 -5 -9 -7 1 -6 25 4 66 12 59 29 -26z m1433 -28 c-4 -3 -7 0 -7 7 0 7 3 10 7 7 3 -4 3 -10 0 -14z m-1472 -81 c12 -9 16 -42 5 -42 -22 0 -40 14 -40 31 0 19 17 25 35 11z m84 -117 c1 -15 -1 -17 -8 -6 -5 7 -14 10 -20 7 -6 -4 -11 0 -11 9 0 9 5 13 10 10 6 -3 10 4 11 17 0 22 1 22 9 3 5 -11 9 -29 9 -40z m-374 -57 l0 -72 33 -8 c17 -5 33 -12 33 -16 6 -40 7 -65 1 -56 -10 16 -52 28 -53 15 -3 -45 -1 -100 4 -108 3 -5 1 -15 -5 -23 -8 -12 -9 -12 -4 3 7 21 -10 23 -18 1 -9 -24 -7 -36 5 -28 15 9 -21 -54 -39 -69 -8 -6 -28 -11 -47 -12 -26 -2 -32 1 -28 14 8 23 34 51 47 51 6 0 4 -4 -4 -10 -8 -5 -12 -11 -9 -15 3 -3 14 4 24 15 10 11 13 20 7 20 -7 0 -12 5 -12 11 0 6 7 8 16 5 11 -4 15 -2 11 8 -3 8 1 17 9 20 8 3 14 12 14 21 0 8 5 15 10 15 6 0 10 15 9 33 0 17 -3 26 -6 20 -2 -7 -9 -13 -15 -13 -5 0 0 12 11 26 25 31 27 48 6 40 -8 -3 -15 -2 -15 3 0 5 -19 13 -41 19 -38 9 -45 8 -80 -15 -22 -14 -39 -30 -39 -36 0 -7 -5 -6 -12 2 -11 10 -10 14 5 22 21 12 23 31 2 23 -8 -4 -15 -2 -15 4 0 5 9 12 20 15 11 3 20 12 20 20 0 8 7 17 15 21 8 3 14 0 12 -6 -2 -12 52 -30 71 -23 7 3 10 1 7 -5 -3 -5 4 -8 16 -7 17 1 19 6 14 27 -3 14 -10 44 -14 67 -7 38 -6 42 13 46 12 2 21 5 21 6 0 0 0 -31 0 -71z m360 21 c-4 -5 1 -9 9 -9 9 0 16 -7 16 -15 0 -11 12 -15 43 -16 23 -1 47 -2 52 -4 6 -1 19 -3 30 -3 13 -2 16 -5 9 -12 -6 -6 -47 -12 -91 -15 -64 -3 -82 -1 -87 11 -3 8 -1 14 4 14 4 0 6 16 4 36 -3 23 -1 33 6 29 6 -4 8 -11 5 -16z m-666 -17 c0 -14 -2 -13 -9 3 -5 11 -9 15 -9 8 -1 -6 -4 -18 -7 -26 -4 -11 1 -13 20 -10 21 4 26 1 26 -16 0 -16 -6 -21 -25 -21 -14 0 -25 -5 -25 -11 0 -17 -27 -39 -49 -39 -23 0 -24 1 -15 24 3 9 15 16 25 16 15 0 19 7 19 32 0 32 26 72 41 62 5 -3 9 -13 8 -22z m87 -40 c0 -14 -6 -17 -23 -14 -25 5 -31 27 -10 35 19 7 33 -2 33 -21z m525 -11 c-13 -10 -21 -23 -18 -28 4 -6 -4 -15 -16 -20 -25 -12 -78 4 -92 27 -11 18 1 22 18 6 13 -13 19 -13 44 -2 87 40 98 43 64 17z m-379 -80 c-4 -11 -7 -10 -12 4 -7 19 -7 19 -18 0 -6 -11 -12 -14 -12 -7 0 7 5 19 12 26 15 16 38 -2 30 -23z m263 29 c3 -5 4 -10 1 -10 -3 0 -8 5 -11 10 -3 6 -4 10 -1 10 3 0 8 -4 11 -10z m-585 -37 c0 9 6 17 14 17 9 0 14 -15 14 -49 1 -27 6 -60 12 -75 8 -23 7 -26 -10 -26 -11 0 -23 0 -27 0 -4 0 -8 11 -9 25 -1 30 -24 76 -34 70 -6 -4 -7 30 -2 59 1 4 11 -2 22 -15 16 -20 19 -21 20 -6z m373 6 c4 -3 2 -11 -6 -18 -12 -9 -14 -7 -14 14 0 14 2 22 6 18 3 -4 10 -10 14 -14z m281 3 c2 -4 -7 -9 -22 -10 -21 -1 -24 0 -12 8 18 12 27 12 34 2z m-211 -33 c5 -3 2 -9 -7 -12 -12 -5 -16 0 -16 15 0 12 3 17 8 12 4 -5 11 -12 15 -15z m217 -11 c0 -13 -23 -5 -28 10 -2 7 2 10 12 6 9 -3 16 -11 16 -16z m-137 -42 c24 -6 77 -48 77 -61 0 -5 -12 2 -26 16 l-26 24 6 -25 c4 -14 4 -20 -1 -14 -14 19 -50 34 -82 34 -23 0 -29 4 -25 15 4 8 1 15 -5 15 -6 0 -11 4 -11 10 0 5 7 7 15 4 8 -4 15 -1 15 4 0 18 35 19 38 1 2 -10 13 -20 25 -23z m1777 14 c8 -5 12 -11 10 -14 -3 -2 -14 2 -24 10 -22 15 -10 19 14 4z m-2333 -22 c-3 -8 -6 -5 -6 6 -1 11 2 17 5 13 3 -3 4 -12 1 -19z m715 -7 c3 -21 0 -28 -11 -26 -15 2 -32 34 -24 48 10 17 31 5 35 -22z m1722 8 c-3 -5 -1 -9 4 -9 5 0 34 -23 63 -51 59 -56 52 -56 -27 2 -29 21 -64 41 -79 45 l-26 6 23 13 c25 12 52 9 42 -6z m-1543 -22 c-10 -9 -11 -8 -5 6 3 10 9 15 12 12 3 -3 0 -11 -7 -18z m-741 -64 c0 -16 -29 -14 -47 4 -17 16 -16 23 3 23 9 0 12 5 8 13 -4 6 2 3 14 -7 12 -11 22 -25 22 -33z m716 28 c-16 -17 -15 -19 5 -33 36 -23 15 -35 -73 -41 -46 -3 -121 -17 -168 -31 -47 -15 -92 -28 -102 -30 -51 -13 -175 -85 -229 -134 -34 -31 -57 -48 -51 -37 6 11 27 33 46 49 23 18 34 36 31 45 -3 11 11 25 48 46 74 43 87 47 87 29 0 -13 4 -13 30 1 37 19 38 27 3 20 -16 -3 5 7 45 22 72 27 74 28 68 57 -6 29 -6 29 8 11 9 -11 16 -28 16 -37 0 -19 25 -25 34 -9 3 5 18 9 33 9 15 0 29 4 31 10 1 5 12 8 22 5 11 -3 20 -1 20 5 0 6 8 8 18 5 10 -2 24 3 31 11 8 9 10 16 5 16 -11 0 37 28 50 29 5 1 2 -7 -8 -18z m-789 -17 c-3 -3 -12 -4 -19 -1 -8 3 -5 6 6 6 11 1 17 -2 13 -5z m130 -41 c-4 -3 -7 0 -7 7 0 7 3 10 7 7 3 -4 3 -10 0 -14z m0 -40 c-4 -3 -7 0 -7 7 0 7 3 10 7 7 3 -4 3 -10 0 -14z m30 -10 c-4 -3 -7 0 -7 7 0 7 3 10 7 7 3 -4 3 -10 0 -14z m2398 -43 c3 -5 4 -10 1 -10 -3 0 -8 5 -11 10 -3 6 -4 10 -1 10 3 0 8 -4 11 -10z m-1618 -22 c2 -17 0 -19 -7 -8 -5 8 -6 18 -4 22 8 12 10 10 11 -14z m66 -5 c-7 -2 -19 -2 -25 0 -7 3 -2 5 12 5 14 0 19 -2 13 -5z m1581 -17 c9 -14 12 -27 7 -30 -5 -3 -14 8 -20 24 -12 36 -9 38 13 6z m36 -85 c0 -9 5 -22 12 -29 9 -9 8 -12 -4 -12 -9 0 -19 11 -22 24 -3 13 -9 32 -13 43 -6 16 -5 16 10 4 9 -7 17 -21 17 -30z m-2460 -55 c0 -3 -5 -8 -12 -12 -7 -4 -8 -3 -4 4 7 12 16 16 16 8z m-20 -30 c0 -3 -5 -8 -12 -12 -7 -4 -8 -3 -4 4 7 12 16 16 16 8z m2516 -130 c3 -21 11 -45 19 -52 17 -18 26 -18 19 0 -4 10 2 12 20 9 18 -4 23 -10 18 -22 -5 -14 -3 -14 11 -3 22 19 56 7 50 -17 -4 -18 -8 -18 -60 -4 -30 8 -57 13 -58 11 -2 -2 1 -23 5 -48 5 -25 9 -56 10 -69 0 -23 -1 -23 -18 -7 -11 9 -19 31 -20 52 -1 20 -7 43 -13 50 -6 8 -8 14 -3 14 5 0 5 4 -1 8 -6 4 -8 42 -6 92 3 71 5 80 13 55 5 -16 12 -47 14 -69z m11 57 c-4 -3 -7 0 -7 7 0 7 3 10 7 7 3 -4 3 -10 0 -14z m-2597 -35 c0 7 4 11 9 8 15 -10 1 -44 -20 -49 -20 -5 -24 8 -13 38 5 13 8 14 15 3 7 -10 9 -11 9 0z m-10 -78 c0 -5 -4 -10 -10 -10 -5 0 -10 5 -10 10 0 6 5 10 10 10 6 0 10 -4 10 -10z m-2 -50 c1 -28 -11 -40 -21 -22 -5 7 9 52 16 52 2 0 4 -13 5 -30z m2929 -27 c-4 -3 -10 -3 -14 0 -3 4 0 7 7 7 7 0 10 -3 7 -7z m47 -28 c-4 -8 -16 -15 -28 -15 -20 0 -20 1 4 14 14 8 26 14 27 15 1 1 0 -6 -3 -14z m-2910 -210 c15 -33 34 -72 41 -87 18 -37 -1 -49 -26 -17 -28 36 -61 107 -63 133 0 13 -5 22 -10 19 -5 -3 -7 8 -4 26 2 17 2 31 -2 31 -3 0 -5 12 -4 28 1 15 3 38 4 52 1 14 9 -9 19 -50 9 -41 29 -102 45 -135z m3251 107 c-3 -3 -11 0 -18 7 -9 10 -8 11 6 5 10 -3 15 -9 12 -12z m-88 -9 c-4 -3 -10 -3 -14 0 -3 4 0 7 7 7 7 0 10 -3 7 -7z m118 -33 c3 -5 -4 -6 -15 -3 -11 3 -22 9 -25 13 -3 5 4 6 15 3 11 -3 22 -9 25 -13z m70 10 c3 -5 4 -10 1 -10 -3 0 -8 5 -11 10 -3 6 -4 10 -1 10 3 0 8 -4 11 -10z m-775 -260 c-13 -117 -31 -200 -41 -200 -18 0 -19 23 -5 82 35 146 46 211 48 270 l2 63 4 -60 c2 -33 -2 -103 -8 -155z m-1853 54 c-3 -4 -2 -15 3 -25 13 -24 -14 -52 -42 -43 -15 5 -19 3 -13 -7 6 -10 5 -11 -3 -4 -16 15 -28 70 -13 61 6 -4 11 -1 11 6 0 8 13 15 32 16 18 2 29 0 25 -4z m3160 -1 c-4 -3 -10 -3 -14 0 -3 4 0 7 7 7 7 0 10 -3 7 -7z m40 -19 c-3 -3 -12 -4 -19 -1 -8 3 -5 6 6 6 11 1 17 -2 13 -5z m-40 -21 c-4 -3 -7 0 -7 7 0 7 3 10 7 7 3 -4 3 -10 0 -14z m-3769 -48 c-3 -3 -9 2 -12 12 -6 14 -5 15 5 6 7 -7 10 -15 7 -18z m122 -90 l0 -30 -22 33 c-17 28 -19 35 -7 42 17 11 29 -6 29 -45z m3607 -2 c-4 -3 -7 0 -7 7 0 7 3 10 7 7 3 -4 3 -10 0 -14z m13 -38 c9 5 11 4 6 -3 -11 -18 -36 -14 -36 6 0 13 2 14 9 3 5 -8 14 -10 21 -6z m-3582 -42 c15 -29 22 -87 13 -102 -6 -9 -14 2 -26 40 -10 30 -20 60 -23 67 -7 19 26 14 36 -5z m3575 -10 c-4 -10 -8 -11 -13 -3 -5 8 -9 5 -12 -7 -3 -11 -12 -20 -21 -20 -9 0 -13 6 -10 15 5 11 7 11 14 0 6 -9 9 -5 9 14 0 21 4 25 19 21 12 -3 17 -11 14 -20z m-1357 -118 c-6 -22 -12 -32 -14 -23 -2 9 -9 16 -15 14 -7 -1 -9 -1 -4 1 4 3 7 15 7 28 0 17 5 23 18 22 17 -1 18 -5 8 -42z m1271 18 c-4 -3 -7 0 -7 7 0 7 3 10 7 7 3 -4 3 -10 0 -14z m15 -34 c-9 -17 -23 -40 -30 -52 l-14 -22 5 23 c4 18 2 22 -9 18 -22 -9 -16 3 18 35 42 37 51 37 30 -2z m-3434 -12 c6 -17 10 -33 7 -35 -9 -10 -34 8 -47 35 -13 26 -13 28 7 29 15 1 25 -7 33 -29z m3377 -65 c-3 -3 -11 0 -18 7 -9 10 -8 11 6 5 10 -3 15 -9 12 -12z m-49 -30 c-17 -16 -18 -16 -5 5 7 12 15 20 18 17 3 -2 -3 -12 -13 -22z m-3261 -42 c-10 -16 -19 -11 -32 17 -10 21 -10 28 -1 35 15 8 43 -36 33 -52z m2010 20 c-3 -6 -14 -10 -23 -10 -15 0 -15 -2 -2 -10 13 -8 13 -10 -2 -10 -27 0 -18 36 10 38 13 1 20 -2 17 -8z m35 0 c0 -5 -4 -10 -10 -10 -5 0 -10 5 -10 10 0 6 5 10 10 10 6 0 10 -4 10 -10z m-77 -46 c10 -10 -4 -34 -20 -34 -8 0 -12 -4 -9 -9 3 -5 -1 -12 -10 -15 -22 -9 -24 -8 -24 9 0 8 4 15 9 15 5 0 13 9 16 20 6 19 25 26 38 14z m274 -91 c-4 -3 -10 -3 -14 0 -3 4 0 7 7 7 7 0 10 -3 7 -7z m-309 -21 c-21 -4 -24 -22 -4 -22 8 0 24 -9 37 -21 l24 -20 -25 15 c-14 8 -27 15 -30 14 -3 -1 -15 5 -27 12 -19 13 -20 15 -5 26 9 6 23 9 32 6 13 -5 12 -7 -2 -10z m289 -19 c-4 -3 -7 0 -7 7 0 7 3 10 7 7 3 -4 3 -10 0 -14z m916 -7 c-10 -13 -24 -21 -31 -19 -18 7 -9 29 11 25 8 -1 18 2 22 8 3 5 8 10 11 10 3 0 -3 -11 -13 -24z m-1029 5 c3 -5 -2 -19 -12 -31 l-18 -22 2 28 c1 16 2 30 3 32 3 6 20 1 25 -7z m36 -21 c0 -5 -2 -10 -4 -10 -2 0 -12 -3 -20 -6 -12 -5 -15 -2 -10 10 7 17 34 22 34 6z m125 0 c3 -6 -1 -7 -9 -4 -18 7 -21 14 -7 14 6 0 13 -4 16 -10z m55 -19 c0 -13 -28 -22 -35 -11 -3 4 1 11 7 13 20 8 28 8 28 -2z m-45 -29 c-2 -3 -12 -1 -22 2 -15 6 -15 9 -3 16 13 8 35 -8 25 -18z m-115 -9 c0 -20 -24 -11 -28 10 -2 12 1 15 12 11 9 -3 16 -13 16 -21z m63 -20 c-7 -2 -21 -2 -30 0 -10 3 -4 5 12 5 17 0 24 -2 18 -5z m719 -64 c-5 -11 -11 -20 -15 -20 -4 1 -11 1 -17 1 -25 0 2 28 37 39 1 1 -1 -8 -5 -20z m-2545 -55 c-12 -12 -37 5 -37 26 l0 21 22 -21 c12 -11 19 -23 15 -26z m2063 25 c0 -5 10 -14 23 -19 14 -5 16 -9 6 -9 -8 -1 -26 10 -40 25 -17 18 -19 23 -6 18 9 -3 17 -10 17 -15z m-2115 -9 c3 -5 4 -10 1 -10 -3 0 -8 5 -11 10 -3 6 -4 10 -1 10 3 0 8 -4 11 -10z m2565 5 c0 -2 -10 -9 -22 -15 -22 -11 -22 -10 -4 4 21 17 26 19 26 11z m-1323 -12 c-4 -3 -10 -3 -14 0 -3 4 0 7 7 7 7 0 10 -3 7 -7z m-40 -23 c1 -13 -6 -22 -23 -26 -13 -3 -21 -11 -17 -17 3 -6 1 -7 -5 -3 -20 12 -14 30 16 48 15 9 27 17 27 17 1 1 1 -8 2 -19z m33 6 c0 -3 -5 -8 -12 -12 -7 -4 -8 -3 -4 4 7 12 16 16 16 8z m990 -15 c11 -11 12 -15 2 -19 -7 -2 -9 -8 -6 -14 3 -5 -3 -4 -15 4 -12 7 -21 21 -21 30 0 20 17 20 40 -1z m117 -18 c-4 -3 -10 -3 -14 0 -3 4 0 7 7 7 7 0 10 -3 7 -7z m30 -10 c-4 -3 -7 0 -7 7 0 7 3 10 7 7 3 -4 3 -10 0 -14z m-92 -13 c-3 -5 -10 -10 -16 -10 -5 0 -9 5 -9 10 0 6 7 10 16 10 8 0 12 -4 9 -10z m52 -17 c-4 -3 -10 -3 -14 0 -3 4 0 7 7 7 7 0 10 -3 7 -7z m-1980 -19 c-3 -3 -12 -4 -19 -1 -8 3 -5 6 6 6 11 1 17 -2 13 -5z m65 -39 c4 -18 1 -22 -11 -18 -44 16 -58 53 -17 46 15 -3 26 -13 28 -28z m-79 8 c-7 -2 -19 -2 -25 0 -7 3 -2 5 12 5 14 0 19 -2 13 -5z m116 -5 c8 13 63 3 58 -11 -8 -26 -78 -11 -76 17 0 6 3 5 6 -3 3 -8 8 -9 12 -3z m88 -5 c-4 -3 -10 -3 -14 0 -3 4 0 7 7 7 7 0 10 -3 7 -7z m-92 -53 c3 -5 4 -10 1 -10 -3 0 -8 5 -11 10 -3 6 -4 10 -1 10 3 0 8 -4 11 -10z m43 -51 c-7 -5 -19 -9 -26 -9 -10 0 -10 3 0 14 7 7 19 11 26 8 11 -4 11 -6 0 -13z m17 -31 c3 -3 -1 -8 -9 -11 -8 -3 -17 0 -19 8 -5 13 16 15 28 3z m22 -25 c-4 -3 -10 -3 -14 0 -3 4 0 7 7 7 7 0 10 -3 7 -7z"/>
<path d="M470 3525 c0 -8 7 -15 15 -15 8 0 15 4 15 9 0 5 -7 11 -15 15 -9 3 -15 0 -15 -9z"/>
<path d="M980 3590 c0 -7 3 -10 7 -7 3 4 3 10 0 14 -4 3 -7 0 -7 -7z"/>
<path d="M303 3563 c4 -3 10 -3 14 0 3 4 0 7 -7 7 -7 0 -10 -3 -7 -7z"/>
<path d="M711 3377 c2 -3 15 -10 28 -17 19 -9 22 -9 19 1 -2 7 -15 14 -28 16 -13 2 -22 2 -19 0z"/>
<path d="M643 2063 c4 -3 10 -3 14 0 3 4 0 7 -7 7 -7 0 -10 -3 -7 -7z"/>
</g>
<g id="layer105" fill="#784946" stroke="none">
<path d="M0 2200 l0 -2200 2200 0 2200 0 0 2200 0 2200 -939 0 -938 0 -8 -52 c-3 -29 -8 -100 -11 -158 -2 -58 -8 -130 -13 -160 -5 -30 -6 -56 -3 -57 4 -2 4 -58 0 -125 -3 -68 -7 -187 -7 -265 -1 -139 -1 -142 21 -148 69 -19 147 -58 174 -86 15 -16 34 -29 42 -29 21 0 84 -70 78 -86 -3 -8 1 -14 8 -14 16 0 47 -33 50 -55 1 -9 8 -20 16 -25 7 -4 11 -17 7 -29 -3 -12 -1 -21 5 -21 5 0 6 -4 3 -10 -3 -5 -2 -10 4 -10 6 0 7 -7 4 -17 -5 -12 -3 -14 7 -8 9 6 11 4 5 -5 -4 -7 -3 -15 3 -19 13 -8 34 -143 26 -165 -3 -8 0 -32 7 -53 7 -21 14 -33 16 -27 4 13 53 6 53 -8 0 -5 5 -6 10 -3 15 9 51 -5 44 -17 -4 -6 1 -8 14 -4 11 4 23 2 27 -4 3 -5 17 -10 31 -10 17 0 27 -8 34 -25 6 -17 17 -25 32 -24 l23 0 -22 11 c-13 6 -23 15 -23 20 0 5 13 2 29 -6 16 -9 31 -13 34 -10 3 3 22 -3 43 -12 22 -10 44 -19 49 -20 33 -7 54 -17 49 -25 -3 -5 9 -7 25 -5 17 2 43 -3 58 -11 16 -8 37 -16 48 -17 12 -1 25 -5 30 -8 10 -5 60 -18 70 -18 3 0 30 -11 60 -25 31 -13 58 -24 60 -25 3 0 6 0 8 -1 1 0 13 -2 26 -5 14 -2 29 -8 35 -13 6 -5 28 -12 49 -16 20 -4 40 -11 43 -16 3 -5 10 -7 15 -3 5 3 16 0 24 -6 8 -7 15 -9 15 -5 0 4 7 2 15 -5 8 -7 15 -9 15 -4 0 4 5 3 12 -4 7 -7 21 -12 33 -12 12 0 25 -4 31 -10 5 -5 22 -11 37 -12 15 -1 27 -6 27 -10 0 -4 9 -8 20 -8 10 0 24 -9 30 -20 6 -11 8 -20 6 -20 -3 0 -45 13 -93 28 -49 16 -107 35 -130 42 -23 7 -41 16 -39 19 2 3 -14 6 -37 7 -22 0 -42 5 -45 12 -2 7 -19 12 -37 12 -18 0 -35 4 -37 10 -1 5 -12 11 -23 13 -11 1 -26 6 -33 11 -7 4 -16 5 -19 2 -3 -3 -22 2 -42 10 -20 9 -49 18 -65 21 -16 3 -39 11 -51 19 -12 8 -25 11 -28 7 -4 -3 -7 -1 -7 5 0 7 -9 12 -20 12 -11 0 -23 7 -27 16 -3 8 -11 13 -19 10 -7 -3 -28 -1 -46 5 -18 5 -46 12 -62 15 -15 2 -41 11 -57 19 -15 8 -37 15 -49 15 -11 0 -31 6 -43 14 -23 14 -216 71 -222 65 -2 -2 1 -25 5 -51 13 -69 20 -193 11 -207 -5 -7 -11 20 -15 61 -4 40 -11 77 -16 82 -6 6 -10 27 -10 47 0 21 -5 41 -10 44 -6 4 -8 11 -5 16 4 5 2 9 -2 9 -5 0 -7 30 -5 68 2 37 0 90 -6 119 -5 29 -6 50 -1 48 4 -3 11 -1 14 5 4 6 1 9 -5 8 -7 -2 -23 27 -38 67 -23 65 -70 141 -117 190 -47 48 -171 126 -210 131 -5 0 -21 6 -35 11 -14 6 -49 14 -77 18 -49 6 -84 25 -49 25 9 0 16 5 16 10 0 6 11 8 25 4 l25 -6 0 148 c0 82 5 214 10 294 5 80 12 206 16 280 3 74 10 153 15 175 5 22 9 43 9 48 0 4 -360 7 -801 7 l-801 0 7 -100 c6 -85 5 -100 -8 -100 -9 0 -17 13 -20 33 -5 37 2 55 14 36 6 -10 9 -8 9 9 0 12 -6 22 -14 22 -19 0 -28 27 -20 66 l6 34 -431 0 -431 0 0 -2200z m926 1774 c-10 -25 -25 -15 -35 24 -14 47 -14 92 -1 92 6 0 10 10 9 23 0 21 -1 21 -9 2 -11 -25 -12 -8 -3 36 6 30 9 22 26 -64 10 -54 16 -105 13 -113z m1376 149 c43 -47 70 -106 95 -213 19 -81 29 -340 13 -340 -16 0 -19 16 -24 145 -2 66 -9 143 -15 170 -6 28 -13 59 -15 70 -2 11 -10 34 -17 50 -7 17 -13 33 -13 37 -3 22 -62 78 -83 78 -13 0 -23 5 -23 12 0 21 -29 -15 -33 -40 -2 -13 -9 -27 -16 -31 -7 -5 -14 -14 -15 -22 -2 -8 -5 -21 -8 -29 -38 -113 -45 -145 -62 -304 -7 -70 -16 -111 -23 -114 -17 -5 -16 10 3 176 20 180 59 294 119 355 37 37 82 36 117 0z m-1353 -273 c7 -41 19 -102 26 -135 8 -33 17 -77 21 -97 6 -38 7 -38 53 -38 78 0 91 -7 91 -49 0 -53 -54 -185 -87 -212 -13 -11 -12 -15 8 -29 12 -10 19 -22 16 -27 -4 -6 -44 -13 -89 -16 -46 -3 -121 -17 -168 -31 -47 -15 -93 -28 -102 -31 -58 -14 -177 -87 -237 -144 -67 -65 -86 -77 -97 -60 -5 8 9 13 29 10 7 -1 11 15 8 33 -1 5 13 21 30 37 l32 29 -27 26 c-20 21 -24 29 -14 36 9 5 5 8 -11 8 -13 0 -22 3 -18 6 3 4 -1 20 -9 36 -9 17 -13 32 -10 36 3 3 6 0 6 -7 0 -7 4 -10 10 -6 5 3 2 13 -8 24 -9 10 -19 16 -21 14 -2 -1 -9 1 -15 6 -6 5 -24 11 -41 14 -70 12 -94 20 -89 28 3 5 -1 9 -9 9 -9 0 -17 15 -22 37 -5 28 -9 33 -16 22 -7 -10 -8 -4 -4 20 5 23 4 31 -4 27 -12 -8 -15 22 -5 49 5 13 8 14 15 3 6 -9 9 -7 9 9 0 33 21 72 42 79 15 4 16 9 8 19 -9 11 -5 17 17 28 42 20 125 15 158 -11 15 -12 42 -24 61 -28 19 -3 34 -11 34 -17 0 -6 3 -7 6 -4 4 3 16 0 28 -8 24 -17 40 -20 31 -5 -8 13 -9 116 -1 147 6 28 52 89 72 97 9 3 20 4 25 0 5 -3 9 -1 9 5 0 6 9 15 20 21 16 8 24 6 41 -11 12 -12 15 -19 8 -17 -8 3 -29 -1 -48 -8 -18 -8 -44 -14 -57 -14 -25 0 -33 -15 -11 -24 8 -3 7 -9 -7 -20 -10 -8 -15 -19 -11 -25 3 -6 2 -11 -3 -11 -11 0 -15 -131 -5 -145 5 -6 22 -15 38 -20 19 -7 31 -18 33 -33 2 -12 8 -19 14 -16 6 4 8 -1 3 -15 -4 -12 -2 -21 4 -21 6 0 11 -7 11 -15 0 -8 15 -22 33 -31 35 -18 67 -48 67 -62 0 -5 6 -15 14 -21 10 -9 17 -6 29 13 15 22 14 28 -1 75 -14 45 -14 53 -2 61 8 5 12 12 8 15 -3 3 -13 -1 -22 -10 -14 -15 -16 -15 -16 -1 0 9 -5 16 -12 16 -6 0 -8 3 -5 7 4 3 -6 14 -23 24 -19 12 -28 24 -24 34 8 19 28 19 48 0 11 -12 20 -13 33 -5 10 6 41 18 69 28 56 19 55 15 32 117 -11 49 -16 60 -31 57 -10 -2 -30 4 -45 14 -15 10 -31 19 -37 19 -24 1 -54 17 -59 30 -4 13 2 14 37 9 23 -4 60 -16 81 -26 30 -16 38 -17 33 -5 -3 8 0 20 6 27 9 10 9 11 0 6 -17 -9 -27 12 -13 29 10 12 10 18 0 30 -7 9 -10 18 -7 21 3 3 1 18 -3 34 -6 20 -5 30 3 33 15 5 21 -11 36 -103z m335 -694 c-7 -18 -82 -26 -88 -10 -7 19 4 24 50 24 33 0 42 -3 38 -14z m-900 -242 c-14 -27 -28 -58 -29 -69 -2 -11 -9 -48 -15 -81 -18 -96 7 -210 77 -352 52 -106 60 -134 34 -117 -20 12 -82 116 -100 168 -46 127 -58 310 -27 402 18 51 40 88 48 80 3 -3 11 1 18 10 23 28 21 9 -6 -41z m2586 -649 c-13 -108 -29 -186 -42 -201 -5 -7 -8 -16 -6 -20 4 -17 -14 -74 -23 -74 -6 0 -8 -3 -6 -7 2 -5 -2 -21 -9 -38 -8 -18 -13 -23 -14 -13 0 12 -5 16 -17 11 -15 -5 -16 -3 -5 8 6 7 12 22 12 33 0 11 6 27 14 35 8 9 16 27 18 41 2 14 6 30 10 35 22 37 64 281 53 315 -3 10 0 38 7 62 l13 43 3 -70 c2 -38 -1 -110 -8 -160z m-943 163 c19 -15 16 -41 -7 -65 -37 -40 -83 -3 -60 49 12 26 46 34 67 16z m2241 -61 c53 -14 68 -50 34 -78 -25 -20 -29 -34 -7 -25 18 7 19 -3 3 -41 -12 -31 -15 -39 -22 -70 -2 -12 -10 -31 -16 -43 -6 -12 -13 -31 -16 -43 -2 -12 -8 -23 -14 -25 -5 -2 -10 -12 -10 -22 0 -10 -5 -22 -10 -25 -6 -4 -8 -11 -5 -16 4 -5 1 -9 -4 -9 -6 0 -10 -3 -9 -7 7 -26 -77 -145 -99 -141 -9 2 -18 -3 -20 -9 -3 -7 3 -13 12 -13 15 0 15 -3 5 -15 -7 -9 -18 -14 -23 -12 -17 5 -16 34 2 54 24 26 75 106 77 120 1 7 9 20 18 29 9 8 14 20 11 25 -4 5 1 9 9 9 9 0 16 5 16 11 0 5 -5 7 -11 3 -8 -4 -8 -1 -1 13 6 10 22 52 36 92 14 40 30 79 35 85 4 6 11 32 13 58 6 49 -1 57 -59 73 -14 4 -23 14 -23 27 0 15 4 18 18 13 9 -3 36 -12 60 -18z m-3151 -43 c-3 -4 -2 -15 3 -25 11 -20 3 -52 -11 -43 -5 3 -9 0 -9 -7 0 -9 -3 -9 -14 0 -11 9 -15 9 -18 -1 -8 -23 -30 32 -24 58 5 20 13 24 43 24 20 0 33 -3 30 -6z m-581 -81 c9 -13 20 -20 25 -17 5 3 9 1 9 -5 0 -5 10 -13 23 -17 25 -8 37 -22 37 -46 0 -10 16 -53 36 -95 88 -192 148 -295 207 -355 9 -10 17 -21 17 -25 0 -14 104 -112 178 -169 25 -18 41 -34 36 -34 -5 0 3 -8 19 -18 26 -18 27 -32 1 -32 -7 0 -30 15 -50 34 -21 19 -41 33 -45 30 -4 -2 -10 8 -14 23 -5 22 -8 24 -17 12 -8 -11 -9 -10 -4 4 9 27 -10 56 -32 50 -24 -6 -138 119 -126 138 5 9 2 10 -10 6 -11 -4 -19 -1 -23 11 -4 9 -9 19 -12 22 -3 3 -15 21 -25 40 -11 19 -28 43 -37 53 -17 18 -79 137 -83 160 -8 37 -19 67 -25 67 -4 0 -8 10 -8 23 -4 49 -14 65 -63 96 -42 27 -50 37 -45 54 4 15 3 18 -3 9 -7 -10 -11 -10 -22 3 -11 13 -10 14 5 8 15 -5 17 -3 12 13 -8 21 -7 20 39 -43z m2324 -358 c0 -20 -13 -25 -30 -13 -12 8 -11 9 3 4 15 -5 17 -2 12 15 -5 15 -4 19 4 15 6 -4 11 -13 11 -21z m-32 -43 c10 7 14 9 10 4 -7 -8 19 -42 31 -40 10 1 31 -24 31 -35 0 -15 -31 -13 -54 4 -10 8 -15 19 -11 27 4 7 -6 0 -22 -17 -16 -16 -29 -32 -29 -35 -1 -16 -27 -50 -35 -45 -5 4 -8 3 -7 -2 1 -4 -3 -18 -10 -30 -11 -19 -8 -24 22 -42 38 -24 118 -31 124 -12 3 9 10 8 28 -4 21 -14 28 -14 60 0 21 9 34 20 31 27 -7 19 18 39 31 26 14 -14 32 -1 33 25 0 12 3 16 6 10 2 -7 12 -13 21 -13 11 0 13 -3 5 -8 -6 -4 -14 -18 -18 -32 -5 -22 2 -32 45 -69 29 -24 56 -55 61 -69 6 -15 15 -22 23 -19 13 5 46 -21 46 -37 0 -17 -37 2 -64 32 -16 17 -35 32 -42 32 -7 0 -14 6 -16 12 -4 10 -10 10 -29 1 -21 -9 -28 -8 -38 6 -11 15 -12 15 -7 -1 8 -26 -35 -33 -114 -18 -42 8 -78 22 -95 36 -15 12 -33 20 -40 18 -7 -3 -24 0 -37 7 -13 7 -26 12 -30 11 -3 -1 -12 5 -18 13 -18 22 -33 18 -62 -15 -14 -16 -28 -27 -30 -24 -3 2 -16 -11 -29 -31 -13 -19 -31 -37 -39 -40 -9 -3 -33 -21 -53 -40 -20 -19 -37 -32 -37 -29 0 3 -16 -7 -36 -23 -43 -32 -65 -38 -56 -15 8 23 28 42 36 35 3 -4 6 -1 6 5 0 7 7 12 15 12 8 0 15 5 15 11 0 5 4 8 9 4 5 -3 17 5 25 17 11 15 16 18 17 8 0 -13 1 -13 6 0 7 17 50 60 61 60 8 0 84 81 119 127 15 21 30 40 33 43 3 3 24 35 45 72 22 37 42 62 43 57 3 -6 11 -5 20 3z m128 -100 c12 2 19 -3 19 -12 0 -8 6 -21 13 -28 21 -23 12 -38 -20 -33 -4 0 -12 -8 -18 -20 -9 -15 -15 -18 -24 -10 -7 6 -17 7 -22 3 -5 -4 2 6 16 21 27 31 27 31 6 53 -8 8 -12 22 -9 30 4 11 8 12 13 4 4 -6 16 -10 26 -8z m1092 -4 c-7 -13 -11 -26 -10 -30 1 -5 -4 -8 -10 -9 -7 0 -33 -28 -59 -62 -25 -34 -59 -69 -77 -78 -17 -9 -29 -19 -26 -22 3 -3 0 -8 -7 -13 -7 -4 -10 -3 -5 4 3 6 2 13 -3 17 -6 3 18 33 52 65 34 33 58 60 53 60 -16 0 26 40 43 41 10 0 12 2 3 6 -14 5 25 42 46 43 10 0 10 -4 0 -22z m-953 -18 c3 -6 -1 -7 -9 -4 -18 7 -21 14 -7 14 6 0 13 -4 16 -10z m722 -233 c-67 -58 -158 -114 -176 -107 -2 1 -7 -4 -12 -11 -4 -7 -15 -14 -24 -15 -9 -1 -24 -6 -33 -10 -9 -4 -25 -6 -34 -5 -10 1 -18 -2 -18 -8 0 -13 -70 -26 -79 -15 -3 5 -15 9 -26 8 -22 0 -99 38 -122 61 -8 8 -24 22 -36 30 -19 13 -20 17 -7 25 22 14 33 12 26 -5 -4 -10 1 -15 14 -15 13 0 20 -7 20 -20 0 -11 5 -20 10 -20 6 0 10 4 10 9 0 5 9 7 20 4 11 -3 20 -9 20 -12 0 -4 6 -8 13 -9 6 -1 34 -4 61 -8 37 -5 66 -1 122 16 41 13 74 27 74 31 0 4 7 10 16 13 8 3 12 2 9 -3 -3 -5 -1 -12 4 -15 13 -8 42 4 35 15 -3 5 -10 7 -15 4 -5 -4 -9 -4 -9 -1 0 3 18 17 40 31 23 14 49 33 59 43 10 9 26 22 37 28 30 18 31 -13 1 -39z m-2637 -56 c0 -5 16 -16 35 -25 19 -9 35 -21 35 -26 0 -17 -46 -11 -62 8 -20 23 -30 52 -18 52 6 0 10 -4 10 -9z m-25 -21 c3 -5 4 -10 1 -10 -3 0 -8 5 -11 10 -3 6 -4 10 -1 10 3 0 8 -4 11 -10z m1202 -31 c1 -13 -5 -23 -18 -26 -10 -3 -19 -9 -19 -12 0 -4 -7 -8 -15 -8 -8 0 -12 4 -9 9 7 11 -7 10 -26 -2 -8 -5 -10 -10 -5 -10 16 0 -43 -28 -67 -32 -13 -2 -28 -9 -34 -16 -8 -12 -12 -11 -22 1 -10 12 -8 16 15 22 15 3 31 12 35 18 6 9 8 9 8 0 0 -7 5 -13 11 -13 5 0 7 5 4 10 -4 6 -3 9 2 8 4 -1 19 4 33 12 14 8 43 24 65 36 22 12 40 22 40 23 1 1 1 -8 2 -20z m-1002 -39 c13 0 15 -3 6 -13 -6 -8 -8 -17 -4 -20 3 -4 1 -7 -5 -7 -7 0 -12 4 -12 8 0 4 -15 13 -33 20 -22 8 -33 18 -33 31 0 20 1 20 32 0 17 -10 39 -19 49 -19z m-95 10 c0 -5 -2 -10 -4 -10 -3 0 -8 5 -11 10 -3 6 -1 10 4 10 6 0 11 -4 11 -10z m206 -51 c6 -5 14 -6 17 -3 4 4 19 2 34 -4 15 -5 37 -13 48 -17 11 -4 42 -7 69 -5 26 1 46 -2 43 -7 -6 -10 182 -9 281 1 39 5 75 12 78 17 7 12 61 11 69 -1 3 -5 -1 -10 -9 -10 -9 0 -16 -5 -16 -10 0 -6 -3 -9 -7 -9 -5 1 -10 1 -13 -1 -10 -3 -66 -9 -134 -14 -60 -4 -73 -8 -95 -33 -14 -15 -25 -31 -23 -35 1 -5 -11 -7 -27 -6 -32 2 -32 23 0 33 44 14 10 29 -72 32 -46 2 -96 7 -110 12 -16 6 -32 5 -40 -1 -11 -8 -10 -9 4 -4 9 3 17 1 17 -4 0 -13 41 -55 69 -69 13 -7 36 -10 52 -7 22 4 29 2 29 -9 0 -8 -4 -15 -10 -15 -5 0 -10 -4 -10 -10 0 -15 30 -12 31 3 0 10 2 10 6 0 2 -7 11 -13 19 -13 8 0 14 -4 14 -10 0 -15 29 -12 46 5 20 19 55 20 48 1 -11 -29 -100 -40 -146 -19 -34 16 -38 16 -38 0 0 -7 9 -18 20 -25 12 -7 19 -21 18 -35 -2 -20 -5 -22 -25 -13 -12 6 -30 29 -40 51 -10 22 -46 71 -80 108 -35 38 -63 73 -63 78 0 5 -12 9 -27 9 -32 0 -56 13 -51 26 1 5 -6 10 -17 12 -16 2 -17 1 -5 -7 8 -5 12 -13 8 -16 -7 -7 -38 22 -38 35 0 11 59 2 76 -11z m476 -175 c-20 -27 -30 -30 -39 -9 -6 18 25 45 44 38 9 -4 8 -11 -5 -29z"/>
<path d="M2381 3864 c0 -11 3 -14 6 -6 3 7 2 16 -1 19 -3 4 -6 -2 -5 -13z"/>
<path d="M940 3780 c0 -7 3 -10 7 -7 3 4 3 10 0 14 -4 3 -7 0 -7 -7z"/>
<path d="M312 3543 c-12 -2 -27 -14 -34 -26 -6 -12 -15 -25 -20 -28 -22 -14 -6 -139 18 -139 8 0 14 -5 14 -11 0 -5 4 -8 9 -4 5 3 19 -7 30 -21 16 -21 31 -28 64 -29 23 -2 56 -7 73 -13 17 -5 37 -6 45 -2 7 5 17 6 23 3 5 -3 6 -1 2 5 -5 8 1 12 16 13 13 0 17 3 11 6 -19 7 -16 23 5 23 13 0 14 2 4 9 -10 6 -9 10 7 14 13 3 21 13 21 27 0 11 5 18 10 15 6 -4 10 7 9 27 0 18 -3 27 -6 21 -2 -7 -9 -13 -14 -13 -5 0 0 13 12 30 30 39 17 50 -16 14 -15 -17 -25 -23 -24 -14 3 31 -1 39 -17 33 -13 -5 -13 -7 -2 -14 10 -7 9 -9 -4 -9 -10 0 -18 8 -18 18 -1 15 -2 15 -15 -2 -9 -11 -15 -14 -15 -7 0 7 7 19 15 27 8 9 15 11 15 5 0 -6 7 -11 15 -11 23 0 18 17 -6 23 -30 8 -66 -22 -74 -60 -8 -44 -40 -46 -41 -3 -1 17 3 30 7 30 5 0 9 5 9 10 0 6 -7 10 -15 10 -8 0 -15 5 -15 10 0 6 9 10 20 10 11 0 20 5 20 10 0 6 -10 10 -22 10 -13 0 -39 2 -58 4 -19 2 -45 2 -58 -1z m199 -120 c-12 -20 -14 -14 -5 12 4 9 9 14 11 11 3 -2 0 -13 -6 -23z m-66 -33 c-20 -22 -35 -26 -35 -10 0 6 7 10 15 10 8 0 15 5 15 10 0 6 5 10 12 10 6 0 3 -9 -7 -20z m142 -2 c-3 -8 -6 -5 -6 6 -1 11 2 17 5 13 3 -3 4 -12 1 -19z m-130 -35 c-4 -3 -7 0 -7 7 0 7 3 10 7 7 3 -4 3 -10 0 -14z m-80 -35 c-3 -8 -6 -5 -6 6 -1 11 2 17 5 13 3 -3 4 -12 1 -19z"/>
<path d="M985 3539 c-22 -4 -58 -17 -80 -27 -22 -11 -43 -18 -47 -15 -5 2 -8 0 -8 -5 0 -6 7 -12 15 -16 8 -3 15 -12 15 -20 0 -8 5 -27 12 -43 16 -40 20 -103 6 -103 -6 0 -9 -3 -5 -6 10 -10 -20 -34 -43 -34 -12 0 -24 9 -29 23 -5 13 -17 29 -26 37 -14 11 -13 7 4 -23 12 -21 21 -44 21 -52 0 -19 19 -19 44 0 10 8 22 12 27 10 4 -3 10 -1 14 5 3 5 14 10 23 10 27 0 94 21 88 27 -3 3 5 14 17 25 12 11 17 17 10 14 -7 -4 -9 1 -6 14 3 11 10 20 15 20 5 0 6 -4 3 -10 -3 -5 -2 -10 2 -10 5 0 14 10 22 23 13 21 13 21 -4 7 -17 -14 -18 -13 -10 5 4 11 15 40 23 65 8 25 22 54 31 64 9 11 10 16 4 12 -7 -4 -13 -3 -13 2 0 11 -71 12 -125 1z"/>
<path d="M576 3486 c3 -9 11 -16 16 -16 13 0 5 23 -10 28 -7 2 -10 -2 -6 -12z"/>
<path d="M628 3458 c-10 -29 4 -56 28 -54 13 0 24 7 24 15 0 8 -7 11 -20 8 -15 -4 -20 0 -20 16 0 18 2 19 10 7 5 -8 12 -11 17 -7 4 5 1 12 -7 17 -20 13 -28 12 -32 -2z"/>
<path d="M634 3333 c-10 -16 -28 -45 -41 -65 -22 -36 -52 -52 -83 -44 -42 11 -60 19 -60 27 0 5 -4 9 -8 9 -5 0 -8 -14 -8 -31 0 -34 49 -99 74 -99 8 0 36 13 62 29 26 16 88 44 139 62 55 20 91 39 91 47 0 24 -32 70 -57 81 -13 6 -39 11 -58 11 -27 0 -38 -6 -51 -27z"/>
<path d="M2654 1618 c-4 -7 -3 -8 4 -4 7 4 12 9 12 12 0 8 -9 4 -16 -8z"/>
<path d="M3000 1596 c-14 -7 -42 -21 -64 -32 -21 -10 -33 -20 -27 -22 7 -2 18 1 25 7 11 9 18 8 29 -4 18 -17 37 -20 37 -4 0 6 6 9 13 6 6 -2 25 2 41 11 l29 14 -24 19 c-29 22 -27 22 -59 5z"/>
<path d="M3789 1483 c-13 -16 -12 -17 4 -4 16 13 21 21 13 21 -2 0 -10 -8 -17 -17z"/>
<path d="M3330 1370 c0 -7 3 -10 7 -7 3 4 3 10 0 14 -4 3 -7 0 -7 -7z"/>
<path d="M860 4330 c0 -7 3 -10 7 -7 3 4 3 10 0 14 -4 3 -7 0 -7 -7z"/>
</g>
<g id="layer106" fill="#855a58" stroke="none">
<path d="M0 2200 l0 -2200 2200 0 2200 0 0 2200 0 2200 -939 0 -938 0 -8 -77 c-4 -43 -9 -114 -11 -158 -2 -44 -6 -111 -8 -150 -3 -38 -9 -183 -12 -321 l-7 -252 24 -6 c64 -18 140 -55 180 -87 20 -16 41 -29 45 -29 16 0 111 -109 125 -142 7 -18 15 -35 19 -38 19 -17 61 -181 67 -260 l6 -89 55 -12 c30 -7 59 -17 66 -23 6 -6 16 -11 21 -11 18 -1 100 -25 117 -35 10 -6 26 -10 36 -10 10 0 35 -9 57 -20 21 -11 41 -18 43 -15 2 2 22 -5 44 -16 21 -11 42 -18 47 -15 4 3 20 -1 35 -9 15 -8 37 -16 49 -17 12 -2 27 -6 32 -9 8 -5 56 -20 75 -23 4 -1 79 -28 120 -43 8 -3 20 -7 25 -8 6 -2 39 -12 74 -24 35 -11 68 -21 72 -21 4 0 20 -5 36 -12 15 -6 31 -12 35 -12 3 -1 10 -4 14 -9 4 -4 17 -7 29 -7 11 0 25 -4 30 -9 6 -6 21 -12 35 -14 14 -2 38 -9 53 -15 16 -7 33 -12 39 -12 22 0 123 -35 131 -45 17 -23 -37 -225 -86 -320 -12 -22 -22 -44 -23 -50 -3 -20 -79 -142 -121 -196 -23 -30 -43 -57 -43 -60 0 -14 -118 -139 -197 -209 -92 -82 -215 -160 -250 -160 -7 0 -25 -8 -39 -17 -60 -39 -190 -13 -264 54 -14 12 -38 34 -55 49 -16 15 -49 44 -72 66 l-43 39 -45 -16 c-25 -8 -58 -15 -73 -15 -47 1 -131 25 -152 43 -11 9 -30 17 -43 17 -12 0 -32 7 -43 15 -12 8 -24 12 -26 9 -3 -2 -11 2 -18 11 -7 8 -16 15 -21 15 -5 0 -38 -28 -73 -63 -71 -69 -151 -137 -161 -137 -4 0 -21 -10 -38 -22 -18 -13 -34 -23 -37 -23 -3 0 -21 -10 -41 -23 -20 -12 -64 -31 -97 -41 -34 -11 -70 -25 -81 -31 -11 -6 -33 -12 -48 -15 -31 -4 -67 -12 -70 -15 -6 -5 -20 -6 -111 -14 -92 -8 -94 -9 -115 -42 -12 -19 -25 -34 -29 -34 -12 0 -48 -33 -48 -44 0 -18 129 2 152 24 12 11 26 20 30 20 5 0 6 4 3 10 -3 6 1 7 9 4 40 -15 -7 -74 -74 -91 -46 -12 -113 -11 -145 2 -19 9 -35 12 -35 8 1 -15 47 -61 69 -68 11 -3 21 -10 21 -15 0 -20 -24 -21 -60 -4 -28 14 -45 32 -61 64 -12 25 -41 64 -64 87 -24 23 -51 55 -61 71 -14 24 -26 31 -64 36 -25 3 -55 13 -66 21 -10 8 -27 15 -36 15 -10 0 -37 11 -61 25 -25 13 -47 22 -49 19 -3 -2 -11 2 -18 11 -7 8 -17 15 -23 15 -14 0 -140 84 -157 105 -7 8 -17 15 -22 15 -11 0 -126 117 -176 179 -21 25 -43 50 -49 54 -7 4 -13 15 -13 22 0 8 -4 15 -9 15 -5 0 -11 8 -15 18 -7 20 -25 49 -48 75 -23 26 -84 155 -93 195 -3 17 -11 32 -16 32 -5 0 -8 3 -7 8 7 24 -15 82 -33 87 -31 10 -140 125 -181 191 -48 78 -77 167 -89 273 -20 169 20 297 124 403 l47 49 -35 36 c-19 19 -34 38 -33 42 1 3 -4 19 -10 34 -7 15 -11 31 -11 35 3 17 -2 32 -8 30 -5 0 -15 1 -23 4 -8 3 -42 12 -74 19 -37 9 -63 22 -70 34 -6 10 -19 28 -29 39 -46 53 10 214 88 253 34 17 117 9 150 -14 17 -12 49 -27 72 -33 23 -6 45 -15 48 -20 3 -6 12 -10 20 -10 10 0 13 18 13 74 0 108 41 172 129 196 50 15 99 7 172 -26 46 -21 52 -22 46 -6 -3 9 -8 31 -10 47 -3 17 -9 62 -15 100 -26 178 -45 367 -43 433 l2 42 -429 0 -430 0 0 -2200z"/>
<path d="M895 4293 c8 -145 44 -400 82 -583 26 -126 26 -125 64 -128 83 -6 96 -11 102 -41 8 -41 -44 -171 -89 -222 -13 -14 -12 -18 7 -31 36 -23 15 -35 -73 -41 -46 -3 -121 -17 -168 -31 -47 -15 -93 -28 -102 -31 -59 -14 -178 -86 -238 -145 -77 -75 -111 -138 -134 -254 -15 -71 -15 -86 -1 -167 8 -49 19 -97 24 -107 4 -9 25 -52 46 -95 39 -81 142 -199 190 -217 15 -6 24 -20 28 -43 5 -34 48 -135 90 -212 11 -22 35 -66 52 -98 17 -32 49 -79 71 -104 21 -26 45 -55 52 -65 23 -32 144 -144 207 -192 33 -25 65 -50 72 -56 7 -5 16 -10 20 -10 4 0 35 -16 68 -36 33 -20 96 -47 140 -60 44 -14 94 -29 110 -34 90 -28 383 -40 475 -19 68 15 132 29 163 36 15 3 30 9 33 14 3 5 12 9 21 9 20 0 186 80 195 94 4 6 8 7 8 3 0 -5 6 -2 13 5 8 7 38 30 68 51 54 37 175 155 217 212 44 59 109 172 132 231 14 32 30 68 37 79 7 11 13 29 13 40 0 12 4 25 9 31 19 21 43 167 48 289 3 103 0 154 -17 245 -11 63 -21 121 -22 128 -1 6 -4 12 -7 12 -3 0 -6 39 -6 87 0 176 -32 274 -125 386 -54 65 -186 156 -235 163 -5 0 -21 6 -35 11 -14 6 -49 14 -77 18 -29 4 -55 10 -58 15 -9 15 24 32 50 26 l25 -6 0 147 c0 82 5 216 10 298 5 83 12 206 15 275 3 69 10 147 16 173 5 26 9 50 9 52 0 3 -360 5 -801 5 l-800 0 6 -107z m1406 -170 c49 -54 71 -107 103 -243 20 -85 23 -314 4 -308 -8 3 -14 24 -15 54 -9 198 -41 359 -88 441 -30 50 -56 61 -89 36 -62 -45 -102 -183 -131 -441 -6 -57 -18 -82 -32 -68 -11 11 28 312 49 376 53 161 135 223 199 153z m-1017 -967 c-7 -18 -82 -26 -88 -10 -7 19 4 24 50 24 33 0 42 -3 38 -14z m744 -728 c18 -18 15 -45 -7 -67 -39 -39 -88 8 -61 58 12 23 49 28 68 9z m-908 -112 c0 -8 3 -21 6 -29 8 -21 -23 -47 -49 -43 -12 3 -25 5 -29 5 -10 1 -10 43 -2 65 8 21 74 22 74 2z"/>
<path d="M684 3761 c-41 -25 -74 -97 -74 -160 0 -63 7 -81 32 -81 27 0 65 -44 72 -86 5 -25 15 -38 34 -46 34 -15 72 -48 72 -64 0 -6 6 -17 14 -23 12 -10 17 -7 29 15 24 45 -7 120 -75 182 -26 25 -28 52 -3 52 8 0 20 -7 29 -15 11 -12 20 -13 33 -5 10 6 41 18 69 28 56 19 55 15 32 118 -9 44 -17 59 -27 56 -8 -3 -28 2 -45 11 -82 41 -144 47 -192 18z"/>
<path d="M990 3540 c-20 -5 -57 -18 -84 -29 -35 -16 -46 -25 -39 -34 31 -38 49 -146 32 -180 -11 -19 -9 -20 41 -14 54 7 68 17 92 70 7 15 16 27 19 27 13 0 65 147 56 156 -10 10 -82 12 -117 4z"/>
<path d="M472 3528 c5 -15 28 -23 28 -10 0 5 -7 13 -16 16 -10 4 -14 1 -12 -6z"/>
<path d="M493 3497 c-12 -12 -24 -39 -28 -59 -4 -21 -13 -42 -21 -49 -8 -6 -14 -22 -14 -36 0 -14 -4 -21 -10 -18 -5 3 -10 1 -10 -4 0 -6 -7 -11 -16 -11 -8 0 -12 -5 -9 -11 4 -6 9 -8 12 -5 3 3 12 -1 20 -9 8 -8 24 -15 36 -15 18 0 19 2 7 10 -13 8 -12 10 3 10 9 0 17 -7 17 -15 0 -11 9 -15 29 -13 25 2 28 5 20 19 -7 14 -3 19 22 24 19 4 27 10 20 14 -7 5 -9 15 -5 26 6 15 4 17 -10 12 -10 -4 -15 -3 -11 3 3 6 13 10 21 10 8 0 14 9 14 20 0 12 11 33 25 48 24 26 31 42 20 42 -3 0 -17 -12 -30 -27 -13 -16 -25 -22 -25 -15 0 22 -20 13 -21 -10 -1 -17 -3 -15 -10 10 -8 28 -7 36 8 48 10 7 13 14 7 14 -21 0 -38 -32 -35 -66 1 -21 -2 -34 -9 -34 -8 0 -10 10 -8 25 4 18 1 25 -10 25 -12 0 -10 6 8 25 13 14 21 27 18 30 -2 3 -14 -5 -25 -18z m-6 -79 c-3 -7 -5 -2 -5 12 0 14 2 19 5 13 2 -7 2 -19 0 -25z m13 -48 c-6 -11 -8 -20 -5 -20 4 0 3 -5 -1 -11 -5 -8 -9 -8 -14 1 -4 7 -1 21 8 31 21 25 25 24 12 -1z m-50 -47 c-10 -16 -11 -15 -6 7 3 14 6 32 7 40 1 8 4 5 6 -7 2 -12 -1 -30 -7 -40z m80 43 c0 -3 -5 -8 -12 -12 -7 -4 -8 -3 -4 4 7 12 16 16 16 8z m-23 -61 c0 -8 -4 -12 -9 -9 -4 3 -8 9 -8 15 0 5 4 9 8 9 5 0 9 -7 9 -15z"/>
<path d="M580 3484 c0 -8 5 -12 10 -9 6 4 8 11 5 16 -9 14 -15 11 -15 -7z"/>
<path d="M550 3480 c-9 -6 -10 -10 -3 -10 6 0 15 5 18 10 8 12 4 12 -15 0z"/>
<path d="M646 3455 c4 -8 11 -15 16 -15 6 0 5 6 -2 15 -7 8 -14 15 -16 15 -2 0 -1 -7 2 -15z"/>
<path d="M632 3425 c0 -16 2 -22 5 -12 2 9 2 23 0 30 -3 6 -5 -1 -5 -18z"/>
<path d="M650 3420 c0 -5 7 -10 16 -10 8 0 12 5 9 10 -3 6 -10 10 -16 10 -5 0 -9 -4 -9 -10z"/>
<path d="M612 3400 c0 -14 2 -19 5 -12 2 6 2 18 0 25 -3 6 -5 1 -5 -13z"/>
<path d="M587 3387 c-11 -29 -9 -43 4 -30 6 6 9 19 7 29 -3 18 -4 18 -11 1z"/>
<path d="M634 3333 c-54 -89 -66 -103 -91 -109 -14 -4 -40 -2 -58 5 -45 16 -54 14 -52 -11 2 -26 55 -88 75 -88 8 0 36 13 62 29 26 16 88 44 139 62 55 20 91 39 91 47 0 24 -32 70 -57 81 -13 6 -39 11 -58 11 -27 0 -38 -6 -51 -27z"/>
<path d="M548 3293 c7 -3 16 -2 19 1 4 3 -2 6 -13 5 -11 0 -14 -3 -6 -6z"/>
<path d="M2944 2733 c11 -37 36 -270 36 -338 -1 -160 -45 -368 -105 -487 -31 -62 -37 -98 -14 -98 5 0 25 -16 45 -36 21 -20 43 -33 51 -30 9 4 18 -4 24 -23 13 -37 51 -65 68 -48 6 6 11 17 11 24 0 17 15 16 30 -2 7 -9 8 -15 2 -15 -5 0 -13 -11 -16 -24 -5 -20 4 -34 52 -80 31 -31 63 -56 70 -56 6 0 12 -4 12 -10 0 -17 134 -117 182 -135 32 -12 64 -16 97 -13 63 6 195 69 281 134 76 57 180 156 180 171 0 5 20 30 45 54 25 24 45 49 45 55 0 5 23 42 50 81 28 39 50 76 50 81 0 6 7 18 16 26 8 9 17 24 19 35 2 11 8 28 13 38 6 10 22 52 36 92 14 40 30 79 35 85 4 6 11 32 13 58 l5 47 -66 24 c-97 36 -311 104 -348 112 -18 3 -35 11 -38 16 -4 5 -17 9 -31 9 -13 0 -32 4 -42 9 -23 13 -140 50 -177 57 -16 3 -39 11 -50 17 -11 6 -22 12 -25 13 -3 0 -12 3 -20 7 -27 10 -104 35 -195 62 -49 15 -99 31 -110 36 -45 19 -212 69 -231 69 -3 0 -3 -8 0 -17z m151 -1013 c3 -6 -1 -7 -9 -4 -18 7 -21 14 -7 14 6 0 13 -4 16 -10z"/>
<path d="M2785 1748 c-19 -29 -42 -63 -50 -74 -15 -20 -14 -22 12 -39 15 -10 48 -20 73 -23 42 -4 48 -1 82 34 48 48 47 49 -65 140 -16 13 -20 9 -52 -38z"/>
<path d="M2940 1635 c-13 -14 -21 -27 -18 -30 9 -9 79 28 75 39 -7 21 -33 16 -57 -9z"/>
<path d="M2990 1589 c-19 -10 -42 -19 -50 -20 -22 -1 30 -17 62 -18 15 -1 39 4 55 10 l28 10 -25 19 c-30 23 -27 23 -70 -1z"/>
<path d="M1580 1230 c0 -12 30 -43 64 -65 35 -23 93 -12 124 22 12 15 20 28 18 30 -2 2 -32 6 -67 9 -35 2 -81 6 -101 9 -22 3 -38 1 -38 -5z"/>
</g>
<g id="layer107" fill="#7c6563" stroke="none">
<path d="M0 2200 l0 -2200 2200 0 2200 0 0 2200 0 2200 -939 0 -938 0 -7 -82 c-4 -46 -9 -130 -12 -188 -3 -58 -7 -123 -9 -145 -2 -22 -7 -153 -11 -292 l-7 -252 29 -7 c16 -4 34 -10 39 -14 6 -4 21 -10 35 -13 41 -10 151 -86 205 -143 91 -94 154 -265 155 -415 l0 -57 58 -15 c50 -13 149 -45 207 -66 43 -16 121 -42 137 -46 9 -2 25 -8 36 -14 10 -5 31 -12 45 -15 27 -5 86 -22 122 -37 28 -11 548 -181 560 -183 6 -1 24 -6 40 -13 17 -6 59 -19 95 -29 36 -10 69 -23 73 -29 26 -35 -60 -292 -150 -448 -20 -34 -56 -88 -80 -120 -23 -31 -43 -62 -43 -67 0 -6 -3 -10 -7 -10 -5 0 -28 -25 -53 -56 -75 -92 -233 -222 -325 -267 -147 -72 -213 -79 -300 -34 -47 25 -70 44 -187 153 l-47 45 -52 -17 c-46 -15 -62 -16 -123 -6 -39 7 -83 21 -98 32 -15 11 -34 20 -41 20 -16 0 -74 24 -97 41 -12 8 -29 -3 -81 -53 -136 -130 -254 -208 -378 -248 -31 -10 -73 -25 -93 -34 -21 -9 -38 -14 -38 -12 0 3 -18 -1 -40 -9 -22 -8 -41 -14 -43 -13 -1 0 -42 -3 -91 -7 -77 -7 -93 -11 -113 -33 -13 -14 -23 -29 -23 -33 0 -5 -4 -9 -10 -9 -12 0 -50 -32 -50 -42 0 -10 55 -10 99 -2 17 4 45 19 60 33 28 27 51 30 51 8 -1 -16 -30 -49 -58 -65 -35 -19 -138 -24 -178 -7 -19 8 -34 10 -34 6 0 -11 68 -71 80 -71 15 0 12 -20 -4 -26 -32 -12 -83 26 -111 82 -16 31 -40 64 -54 75 -14 10 -39 39 -56 63 -25 37 -36 45 -71 50 -41 5 -59 12 -159 57 -27 13 -53 23 -57 23 -4 1 -13 7 -19 14 -7 6 -17 12 -23 12 -13 0 -139 85 -156 105 -7 8 -17 15 -22 15 -11 0 -103 93 -179 181 -88 102 -219 318 -219 361 0 8 -6 22 -14 33 -7 11 -16 37 -20 57 -5 29 -16 44 -49 67 -105 73 -194 206 -234 351 -22 77 -22 261 -1 320 27 74 60 130 110 183 l46 50 -33 34 c-21 21 -38 53 -46 84 -14 53 -13 52 -114 79 -50 13 -64 22 -87 55 -33 48 -36 95 -10 163 21 55 47 88 82 107 35 18 124 14 147 -8 16 -14 81 -41 142 -58 11 -3 15 11 16 67 3 106 47 170 132 194 50 15 99 7 172 -26 46 -21 52 -22 46 -6 -7 18 -28 154 -45 302 -6 47 -13 102 -16 122 -2 21 -6 73 -7 118 l-1 80 -428 0 -428 0 0 -2200z"/>
<path d="M895 4303 c11 -191 87 -675 110 -714 3 -3 32 -9 65 -11 33 -2 63 -8 67 -12 26 -25 -15 -154 -73 -232 l-23 -32 21 -14 c35 -23 14 -35 -74 -41 -46 -3 -121 -17 -168 -32 -47 -14 -93 -27 -103 -30 -42 -10 -166 -81 -215 -122 -110 -94 -157 -202 -157 -363 0 -116 12 -165 71 -288 37 -75 143 -195 190 -212 13 -5 24 -17 24 -27 0 -20 16 -64 48 -136 12 -27 22 -50 22 -52 0 -1 25 -46 55 -99 111 -197 277 -367 463 -475 106 -62 163 -85 287 -117 101 -26 126 -28 295 -28 112 -1 199 3 220 10 19 7 62 17 95 24 33 7 64 17 70 22 5 4 16 8 25 8 24 0 158 70 240 125 70 47 191 159 252 232 34 43 112 175 138 238 12 28 27 64 35 80 78 179 93 406 44 665 -6 30 -11 61 -11 68 -1 6 -4 12 -8 12 -3 0 -4 27 -2 61 7 100 -22 243 -69 331 -28 53 -105 136 -164 175 -55 37 -113 65 -132 65 -4 0 -13 4 -20 9 -6 5 -39 14 -74 20 -74 12 -80 15 -72 35 4 12 15 15 39 11 l34 -6 0 147 c0 81 5 219 10 307 5 88 12 212 15 275 4 63 10 137 16 163 5 26 9 50 9 52 0 3 -360 5 -801 5 l-800 0 6 -97z m1406 -180 c49 -54 75 -114 102 -238 20 -91 24 -319 5 -313 -8 3 -14 23 -15 49 -5 101 -26 268 -40 319 -21 78 -61 156 -88 170 -19 10 -27 9 -49 -6 -62 -45 -100 -179 -131 -456 -4 -41 -11 -58 -21 -58 -18 0 -18 10 2 178 21 188 65 314 128 364 32 27 78 23 107 -9z m-1013 -965 c-6 -16 -79 -31 -91 -19 -17 17 4 31 49 31 32 0 44 -4 42 -12z m740 -730 c18 -18 15 -45 -7 -67 -39 -39 -88 8 -61 58 12 23 49 28 68 9z m-905 -125 c6 -34 0 -51 -24 -58 -31 -10 -59 4 -59 30 0 42 10 55 45 55 28 0 33 -4 38 -27z"/>
<path d="M691 3762 c-46 -23 -80 -90 -81 -159 0 -64 7 -83 32 -83 27 0 65 -44 72 -86 5 -25 15 -38 34 -46 34 -15 72 -48 72 -64 0 -6 7 -17 15 -24 12 -10 17 -7 27 15 22 48 -8 122 -74 183 -26 25 -28 52 -3 52 8 0 20 -7 29 -15 11 -12 20 -13 33 -5 10 6 41 19 68 28 28 10 51 23 52 29 2 7 -4 31 -12 54 -8 23 -15 52 -15 65 0 18 -5 24 -23 24 -12 0 -31 6 -42 13 -25 17 -95 37 -126 37 -13 0 -40 -8 -58 -18z"/>
<path d="M933 3521 c-71 -26 -74 -29 -63 -49 38 -68 49 -136 29 -174 -11 -20 -9 -21 37 -15 39 4 54 11 76 38 16 18 28 39 28 46 0 7 4 13 8 13 13 0 61 120 62 153 0 14 -126 6 -177 -12z"/>
<path d="M634 3333 c-54 -89 -66 -103 -91 -109 -14 -4 -40 -2 -58 5 -44 16 -55 14 -52 -8 4 -28 56 -91 74 -91 9 0 37 13 63 29 26 16 88 44 139 62 55 20 91 39 91 47 0 24 -32 70 -57 81 -13 6 -39 11 -58 11 -27 0 -38 -6 -51 -27z"/>
<path d="M2944 2733 c11 -37 36 -270 36 -338 -1 -161 -45 -368 -106 -489 l-35 -69 51 -47 c36 -33 58 -46 71 -43 14 4 19 0 19 -14 0 -11 12 -32 26 -47 30 -29 47 -23 58 20 8 29 31 27 30 -2 0 -10 -6 -31 -13 -46 -13 -25 -11 -28 20 -56 19 -16 46 -40 60 -53 183 -163 218 -184 309 -184 56 0 77 6 150 41 124 60 226 141 325 258 28 33 58 69 68 80 54 62 197 312 197 345 0 5 13 42 29 82 16 41 31 90 34 111 5 32 3 37 -21 47 -51 19 -181 61 -577 186 -66 20 -156 51 -200 67 -43 16 -116 41 -161 54 -46 13 -122 37 -171 55 -78 27 -185 59 -199 59 -3 0 -3 -8 0 -17z"/>
</g>
<g id="layer108" fill="#956c6a" stroke="none">
<path d="M0 2200 l0 -2200 2200 0 2200 0 0 2200 0 2200 -939 0 -938 0 -7 -82 c-4 -46 -9 -130 -12 -188 -3 -58 -7 -123 -9 -145 -2 -22 -7 -153 -11 -292 l-7 -252 29 -7 c16 -4 34 -10 39 -14 6 -4 21 -10 35 -13 41 -10 151 -86 205 -143 91 -94 154 -265 155 -416 0 -56 0 -57 33 -63 29 -7 182 -55 232 -74 37 -14 120 -42 137 -46 9 -2 25 -8 36 -14 10 -5 31 -12 45 -15 27 -5 86 -22 122 -37 28 -11 548 -181 560 -183 6 -1 24 -6 40 -13 17 -6 59 -19 95 -29 36 -10 69 -23 73 -29 26 -35 -60 -292 -150 -448 -20 -34 -56 -88 -80 -120 -23 -31 -43 -62 -43 -67 0 -6 -3 -10 -7 -10 -5 0 -28 -25 -53 -56 -75 -92 -233 -222 -325 -267 -147 -72 -213 -79 -300 -34 -47 25 -70 44 -187 153 l-47 45 -52 -17 c-46 -15 -62 -16 -123 -6 -39 7 -83 21 -98 32 -15 11 -34 20 -41 20 -16 0 -74 24 -97 41 -12 8 -29 -3 -81 -53 -136 -130 -254 -208 -378 -248 -31 -10 -73 -25 -93 -34 -21 -9 -38 -14 -38 -12 0 3 -18 -1 -40 -9 -22 -8 -41 -14 -43 -13 -1 0 -42 -3 -91 -7 -77 -7 -93 -11 -113 -33 -13 -14 -23 -29 -23 -33 0 -5 -4 -9 -10 -9 -12 0 -50 -32 -50 -42 0 -10 55 -10 99 -2 17 4 45 19 60 33 28 27 51 30 51 8 -1 -16 -30 -49 -58 -65 -35 -19 -138 -24 -178 -7 -19 8 -34 10 -34 6 0 -11 68 -71 80 -71 15 0 12 -20 -4 -26 -32 -12 -83 26 -111 82 -16 31 -40 64 -54 75 -14 10 -39 39 -56 63 -25 37 -36 45 -71 50 -41 5 -59 12 -159 57 -27 13 -53 23 -57 23 -4 1 -13 7 -19 14 -7 6 -17 12 -23 12 -13 0 -139 85 -156 105 -7 8 -17 15 -22 15 -11 0 -103 93 -179 181 -88 102 -219 318 -219 361 0 8 -6 22 -14 33 -7 11 -16 37 -20 57 -5 29 -16 44 -49 67 -106 73 -195 207 -234 350 -22 79 -22 262 -1 321 27 74 60 130 110 183 l46 50 -33 34 c-21 21 -38 53 -46 84 -14 53 -13 52 -114 79 -50 13 -64 22 -87 55 -33 48 -36 95 -10 163 21 55 47 88 82 107 35 18 124 14 147 -8 16 -14 80 -40 142 -58 11 -3 14 11 16 66 2 106 46 171 133 196 50 14 124 1 187 -32 35 -19 37 -19 30 -2 -7 19 -27 153 -45 303 -6 47 -13 102 -16 122 -2 21 -6 73 -7 118 l-1 80 -428 0 -428 0 0 -2200z"/>
<path d="M895 4303 c6 -102 22 -230 56 -443 19 -118 25 -145 49 -240 l11 -40 57 0 c62 0 82 -11 82 -45 0 -44 -44 -146 -93 -217 -9 -14 -8 -20 7 -31 30 -22 12 -34 -67 -40 -177 -15 -385 -92 -490 -182 -54 -46 -121 -141 -143 -200 -25 -69 -25 -259 0 -330 41 -116 87 -195 153 -261 36 -36 76 -70 89 -74 13 -5 24 -17 24 -27 0 -20 16 -64 48 -136 12 -27 22 -50 22 -52 0 -1 25 -46 55 -99 111 -197 277 -367 463 -475 106 -62 163 -85 287 -117 101 -26 126 -28 295 -28 112 -1 199 3 220 10 19 7 62 17 95 24 33 7 64 17 70 22 5 4 16 8 25 8 24 0 158 70 240 125 70 47 191 159 252 232 34 43 112 175 138 238 12 28 27 64 35 80 79 181 95 506 33 712 -5 17 -11 80 -12 140 -6 183 -70 330 -187 425 -44 36 -179 115 -179 104 0 -3 -15 1 -32 8 -18 8 -54 17 -80 20 -52 8 -61 15 -48 35 5 8 19 12 37 9 l30 -4 6 250 c7 254 33 671 43 687 3 5 -330 9 -796 9 l-800 0 5 -97z m1410 -180 c70 -71 115 -235 115 -425 0 -70 -4 -129 -9 -132 -14 -9 -21 20 -21 82 0 72 -25 259 -40 309 -22 69 -62 141 -85 153 -19 10 -27 9 -49 -6 -62 -45 -100 -179 -131 -456 -5 -43 -10 -58 -22 -58 -14 0 -15 12 -9 88 17 216 54 353 116 432 27 34 37 40 69 40 28 0 45 -7 66 -27z m-1017 -965 c-6 -16 -79 -31 -91 -19 -17 17 4 31 49 31 32 0 44 -4 42 -12z m740 -730 c18 -18 15 -45 -7 -67 -39 -39 -88 8 -61 58 12 23 49 28 68 9z m-905 -125 c6 -34 0 -51 -24 -58 -31 -10 -59 4 -59 30 0 42 10 55 45 55 28 0 33 -4 38 -27z"/>
<path d="M691 3762 c-23 -11 -43 -33 -58 -62 -36 -71 -28 -180 13 -180 23 0 61 -47 68 -85 4 -21 14 -36 26 -40 28 -9 80 -54 80 -70 0 -7 7 -18 15 -25 12 -10 17 -7 27 15 22 48 -8 122 -74 183 -26 25 -28 52 -3 52 8 0 20 -7 29 -15 11 -12 20 -13 33 -5 10 6 41 18 69 28 l51 18 -13 49 c-7 28 -13 63 -14 78 0 19 -4 27 -12 24 -7 -2 -29 4 -48 13 -84 43 -136 49 -189 22z"/>
<path d="M933 3521 c-74 -27 -73 -26 -51 -74 26 -53 34 -117 18 -147 -12 -23 -12 -23 36 -17 39 4 54 11 76 38 16 18 28 39 28 46 0 7 4 13 8 13 13 0 61 120 62 153 0 14 -126 6 -177 -12z"/>
<path d="M496 3495 c-11 -8 -17 -17 -14 -20 2 -3 13 4 23 15 21 23 18 25 -9 5z"/>
<path d="M543 3503 c4 -3 10 -3 14 0 3 4 0 7 -7 7 -7 0 -10 -3 -7 -7z"/>
<path d="M554 3478 c-4 -7 -3 -8 4 -4 12 7 16 16 8 16 -3 0 -8 -5 -12 -12z"/>
<path d="M580 3480 c0 -7 3 -10 7 -7 3 4 3 10 0 14 -4 3 -7 0 -7 -7z"/>
<path d="M582 3453 c-23 -26 -30 -39 -22 -48 5 -6 7 -15 3 -18 -3 -4 -1 -7 6 -7 8 0 11 8 8 19 -3 13 5 29 24 47 28 27 37 45 22 43 -5 -1 -23 -17 -41 -36z"/>
<path d="M526 3420 c6 -63 5 -66 -19 -77 -18 -9 -28 -9 -37 0 -10 10 -12 8 -6 -6 3 -11 9 -29 12 -42 6 -24 44 -30 52 -7 3 8 -3 12 -14 10 -12 -2 -20 4 -22 17 -4 17 -2 18 12 6 12 -10 22 -10 43 -2 l28 11 -30 -5 -30 -5 28 15 c15 9 27 20 27 25 0 14 -17 12 -23 -2 -3 -7 -6 12 -6 42 -1 30 -6 62 -11 70 -7 10 -8 -5 -4 -50z"/>
<path d="M646 3457 c3 -10 9 -15 12 -12 3 3 0 11 -7 18 -10 9 -11 8 -5 -6z"/>
<path d="M466 3434 c-4 -9 -4 -19 -1 -22 2 -3 7 3 11 12 4 9 4 19 1 22 -2 3 -7 -3 -11 -12z"/>
<path d="M632 3430 c0 -14 2 -19 5 -12 2 6 2 18 0 25 -3 6 -5 1 -5 -13z"/>
<path d="M475 3402 c-13 -9 -16 -42 -4 -42 9 0 49 36 49 45 0 8 -34 6 -45 -3z"/>
<path d="M591 3393 c0 -6 -4 -20 -7 -30 -5 -14 -4 -15 5 -7 7 7 11 20 8 30 -3 11 -5 14 -6 7z"/>
<path d="M432 3360 c-5 -19 -13 -43 -17 -52 -4 -11 -3 -18 4 -18 12 0 34 75 28 93 -2 7 -9 -4 -15 -23z"/>
<path d="M505 3370 c-3 -5 -1 -10 4 -10 6 0 11 5 11 10 0 6 -2 10 -4 10 -3 0 -8 -4 -11 -10z"/>
<path d="M553 3293 c4 -3 10 -3 14 0 3 4 0 7 -7 7 -7 0 -10 -3 -7 -7z"/>
<path d="M448 3283 c7 -3 16 -2 19 1 4 3 -2 6 -13 5 -11 0 -14 -3 -6 -6z"/>
<path d="M2943 2734 c33 -116 44 -466 19 -574 -24 -97 -54 -183 -89 -254 l-34 -69 51 -47 c36 -33 58 -46 71 -43 14 4 19 0 19 -14 0 -11 12 -32 26 -47 30 -29 47 -23 58 20 8 29 31 27 30 -2 0 -10 -6 -31 -13 -46 -13 -25 -11 -28 20 -56 19 -16 46 -40 60 -53 183 -163 218 -184 309 -184 56 0 77 6 150 41 125 61 228 142 325 259 28 33 53 62 57 65 33 25 208 327 208 359 0 5 13 42 29 82 16 41 31 90 34 111 6 41 16 35 -138 86 -84 28 -175 57 -465 148 -63 20 -151 49 -195 66 -43 16 -116 41 -161 54 -46 13 -122 38 -171 55 -48 17 -106 35 -128 39 -22 5 -48 12 -59 16 -15 6 -17 3 -13 -12z"/>
<path d="M3008 1596 c-14 -8 -38 -18 -54 -23 l-29 -10 42 -7 c44 -8 99 -1 108 14 3 4 -6 15 -19 23 -19 13 -27 14 -48 3z"/>
</g>
<g id="layer109" fill="#92706f" stroke="none">
<path d="M0 2200 l0 -2200 2200 0 2200 0 0 2200 0 2200 -939 0 -938 0 -7 -81 c-4 -45 -9 -129 -12 -188 -3 -58 -7 -124 -9 -146 -2 -22 -7 -153 -11 -291 l-7 -252 24 -6 c140 -40 296 -154 350 -256 52 -99 89 -234 89 -323 0 -66 -12 -57 145 -107 55 -17 109 -35 120 -39 36 -14 120 -42 137 -46 9 -2 25 -8 36 -14 10 -5 31 -12 45 -15 27 -5 86 -22 122 -37 25 -9 545 -179 565 -184 67 -17 197 -61 203 -70 34 -46 -98 -387 -210 -541 -26 -36 -52 -73 -58 -81 -5 -9 -28 -36 -50 -62 -172 -201 -399 -347 -534 -345 -75 1 -129 30 -232 124 -116 106 -107 101 -164 83 -41 -14 -59 -15 -119 -5 -39 7 -83 21 -98 32 -15 11 -35 20 -44 20 -9 0 -38 11 -64 24 l-49 25 -58 -58 c-103 -102 -168 -149 -288 -210 -62 -31 -185 -78 -225 -86 -13 -2 -37 -9 -54 -14 -17 -5 -62 -12 -101 -16 -108 -9 -123 -14 -141 -44 -9 -16 -30 -36 -45 -45 -38 -23 -37 -36 5 -36 59 0 96 12 127 41 30 28 49 30 49 6 -1 -18 -31 -50 -62 -66 -31 -16 -137 -20 -183 -7 l-30 9 29 -32 c16 -17 38 -33 48 -37 22 -7 24 -34 2 -34 -40 0 -81 32 -109 85 -17 30 -49 71 -72 90 -24 20 -43 42 -43 49 0 21 -32 43 -74 50 -37 7 -49 11 -148 55 -26 12 -50 21 -53 21 -13 0 -175 103 -195 125 -13 14 -27 25 -32 25 -10 0 -95 85 -172 171 -81 90 -226 328 -226 371 0 8 -6 22 -14 33 -7 11 -16 37 -20 57 -5 26 -16 44 -39 59 -114 79 -213 224 -248 369 -20 80 -17 253 5 315 24 68 58 125 110 181 l43 48 -33 34 c-20 20 -37 53 -45 83 -14 53 -13 52 -114 79 -50 13 -64 22 -87 55 -33 48 -36 95 -10 163 21 55 47 88 82 107 35 18 124 14 147 -8 16 -14 80 -40 142 -58 11 -3 14 11 16 66 2 106 46 171 133 196 50 14 124 1 187 -32 35 -19 37 -19 31 -2 -8 19 -40 235 -51 343 -4 36 -9 74 -11 85 -2 11 -5 59 -6 108 l-2 87 -428 0 -428 0 0 -2200z"/>
<path d="M895 4303 c6 -102 22 -230 56 -443 19 -118 25 -145 49 -240 l11 -40 57 0 c62 0 82 -11 82 -45 0 -44 -44 -146 -93 -217 -9 -14 -8 -20 7 -31 30 -22 12 -34 -67 -40 -177 -15 -385 -92 -490 -182 -55 -47 -122 -142 -142 -200 -50 -148 -20 -334 79 -500 33 -54 129 -153 161 -165 14 -5 25 -24 34 -61 8 -30 17 -58 21 -64 5 -5 16 -30 26 -55 55 -136 178 -314 300 -432 160 -154 314 -241 519 -294 100 -25 126 -28 290 -28 119 -1 197 3 230 12 28 7 70 18 95 24 25 5 59 16 77 24 17 8 35 14 40 14 17 1 140 67 210 113 235 156 411 422 480 727 25 110 23 344 -5 470 -12 52 -23 145 -25 205 -7 186 -71 332 -188 427 -44 36 -179 115 -179 104 0 -3 -15 1 -32 8 -18 8 -54 17 -80 20 -52 8 -61 15 -48 35 5 8 19 12 37 9 l30 -4 6 250 c7 254 33 671 43 687 3 5 -330 9 -796 9 l-800 0 5 -97z m1410 -180 c72 -71 117 -245 113 -433 -2 -77 -7 -124 -13 -123 -5 2 -11 24 -12 50 -12 261 -64 456 -133 493 -39 21 -94 -51 -130 -171 -14 -46 -40 -221 -40 -268 0 -52 -10 -81 -28 -81 -13 0 -14 13 -8 88 17 216 54 353 116 432 27 34 37 40 69 40 28 0 46 -7 66 -27z m-1015 -967 c0 -16 -79 -31 -93 -17 -17 17 4 31 49 31 31 0 44 -4 44 -14z m738 -728 c18 -18 15 -45 -7 -67 -39 -39 -88 8 -61 58 12 23 49 28 68 9z m-904 -122 c8 -32 -1 -54 -25 -61 -31 -10 -59 4 -59 30 0 42 10 55 45 55 26 0 34 -5 39 -24z"/>
<path d="M707 3770 c-40 -12 -52 -25 -76 -75 -34 -72 -25 -175 15 -175 23 0 61 -47 68 -85 4 -21 14 -36 26 -40 28 -9 80 -54 80 -70 0 -7 7 -18 15 -25 12 -10 17 -7 27 15 22 48 -8 122 -74 183 -26 25 -28 52 -3 52 8 0 20 -7 29 -15 11 -12 20 -13 33 -5 10 6 41 18 69 28 l51 18 -13 49 c-7 28 -13 63 -14 79 0 20 -4 27 -14 23 -7 -3 -26 2 -42 12 -29 17 -111 42 -136 40 -7 0 -26 -5 -41 -9z"/>
<path d="M955 3528 c-16 -6 -44 -16 -62 -24 l-32 -13 21 -43 c26 -54 34 -118 18 -148 -12 -23 -12 -23 36 -17 39 4 54 11 76 38 16 18 28 37 28 42 0 4 9 20 20 35 17 23 50 111 50 135 0 11 -120 7 -155 -5z"/>
<path d="M473 3523 c4 -3 10 -3 14 0 3 4 0 7 -7 7 -7 0 -10 -3 -7 -7z"/>
<path d="M480 3480 c0 -7 3 -10 7 -7 3 4 3 10 0 14 -4 3 -7 0 -7 -7z"/>
<path d="M550 3449 c0 -5 5 -7 10 -4 6 3 10 8 10 11 0 2 -4 4 -10 4 -5 0 -10 -5 -10 -11z"/>
<path d="M594 3448 c-4 -7 -3 -8 4 -4 7 4 12 9 12 12 0 8 -9 4 -16 -8z"/>
<path d="M650 3450 c0 -7 3 -10 7 -7 3 4 3 10 0 14 -4 3 -7 0 -7 -7z"/>
<path d="M660 3420 c0 -7 3 -10 7 -7 3 4 3 10 0 14 -4 3 -7 0 -7 -7z"/>
<path d="M586 3375 c-9 -26 -7 -32 5 -12 6 10 9 21 6 23 -2 3 -7 -2 -11 -11z"/>
<path d="M642 3348 c-5 -7 -19 -32 -31 -55 -12 -24 -32 -50 -46 -59 -24 -16 -38 -16 -108 2 -23 5 -27 4 -24 -14 4 -28 55 -92 74 -92 9 0 37 13 62 28 25 16 87 44 136 62 50 18 91 34 93 36 9 6 -29 74 -49 88 -28 19 -92 21 -107 4z"/>
<path d="M505 3280 c-3 -5 -1 -10 4 -10 6 0 11 5 11 10 0 6 -2 10 -4 10 -3 0 -8 -4 -11 -10z"/>
<path d="M2943 2734 c33 -116 44 -466 19 -574 -24 -97 -54 -183 -89 -254 l-34 -69 51 -47 c36 -33 58 -46 71 -43 14 4 19 0 19 -14 0 -11 12 -32 26 -47 30 -29 47 -23 58 19 4 14 11 25 17 25 19 0 21 -32 4 -64 l-18 -34 34 -30 c19 -16 46 -40 60 -53 183 -163 218 -184 309 -184 56 0 77 6 150 41 125 61 228 142 325 259 28 33 53 62 57 65 33 25 208 327 208 359 0 5 13 42 29 82 16 41 31 90 34 110 l5 37 -71 25 c-88 31 -381 126 -422 137 -64 18 -253 80 -320 105 -38 15 -95 33 -125 42 -30 8 -113 34 -185 58 -71 24 -142 46 -157 49 -14 3 -34 9 -43 12 -14 6 -16 3 -12 -12z"/>
<path d="M2786 1749 c-20 -30 -43 -64 -51 -75 -15 -20 -14 -22 10 -38 13 -9 44 -19 68 -22 39 -6 48 -3 80 26 21 18 37 40 37 50 0 10 -21 35 -47 56 -27 21 -51 43 -55 48 -3 5 -22 -15 -42 -45z"/>
<path d="M2942 1637 c-31 -33 -27 -39 15 -22 47 20 51 24 33 35 -21 14 -24 13 -48 -13z"/>
<path d="M2981 1584 l-54 -22 41 -7 c43 -7 98 1 107 15 3 4 -5 14 -18 22 -19 12 -28 12 -76 -8z"/>
<path d="M1580 1232 c0 -5 19 -26 41 -47 35 -32 47 -36 75 -32 34 6 80 33 88 53 3 8 -21 14 -72 18 -42 4 -89 9 -104 12 -16 3 -28 1 -28 -4z"/>
</g>
<g id="layer110" fill="#a18280" stroke="none">
<path d="M0 2200 l0 -2200 2200 0 2200 0 0 2200 0 2200 -939 0 -938 0 -7 -87 c-18 -248 -36 -618 -36 -749 l0 -122 53 -17 c127 -41 268 -150 318 -245 52 -99 89 -234 89 -323 0 -50 3 -59 23 -66 26 -11 354 -119 379 -125 24 -6 180 -57 203 -66 24 -10 543 -180 565 -185 67 -17 197 -61 203 -70 22 -29 -36 -220 -114 -378 -54 -109 -130 -223 -201 -300 -26 -29 -48 -55 -48 -59 0 -13 -175 -160 -235 -198 -96 -60 -190 -95 -254 -94 -77 1 -135 34 -250 139 -66 60 -99 84 -110 79 -9 -3 -33 -11 -54 -17 -49 -13 -166 7 -201 34 -13 10 -32 19 -41 19 -9 0 -39 11 -65 24 l-48 24 -43 -45 c-121 -124 -277 -224 -433 -278 -44 -15 -89 -29 -99 -31 -11 -2 -34 -8 -51 -13 -17 -5 -58 -12 -91 -16 -123 -12 -134 -15 -151 -45 -9 -15 -30 -35 -46 -44 -33 -20 -29 -36 11 -36 54 0 92 13 122 41 31 28 49 30 49 5 0 -18 -29 -48 -63 -66 -31 -16 -135 -20 -182 -7 l-30 9 29 -31 c16 -17 38 -33 48 -37 25 -8 23 -34 -3 -34 -37 0 -77 32 -105 84 -15 28 -42 64 -61 80 -19 16 -45 45 -58 66 -19 30 -31 38 -64 44 -22 3 -55 12 -73 20 -18 8 -58 24 -88 37 -63 27 -189 100 -238 138 -19 14 -79 71 -134 126 -127 127 -269 340 -303 455 -4 14 -11 30 -15 35 -4 6 -10 27 -14 48 -5 29 -16 43 -45 61 -95 60 -205 225 -242 361 -20 75 -18 248 4 317 21 65 79 159 124 201 l30 28 -29 31 c-31 33 -58 89 -58 119 0 19 -12 25 -105 49 -50 13 -63 21 -87 55 -19 28 -27 53 -28 82 0 81 64 184 125 199 37 9 103 -2 124 -20 14 -13 74 -38 139 -57 11 -3 14 13 16 66 2 106 48 171 134 196 50 14 124 1 187 -32 35 -19 37 -19 31 -2 -8 19 -40 235 -51 343 -4 36 -9 74 -11 85 -2 11 -5 59 -6 108 l-2 87 -428 0 -428 0 0 -2200z"/>
<path d="M896 4308 c3 -51 12 -142 20 -203 7 -60 17 -130 20 -155 7 -55 51 -281 65 -332 l10 -38 57 0 c64 0 82 -11 82 -50 0 -39 -48 -149 -92 -212 -10 -14 -9 -20 6 -31 30 -22 12 -34 -67 -40 -121 -10 -288 -59 -392 -115 -115 -62 -227 -204 -254 -323 -38 -165 27 -381 157 -524 25 -27 62 -60 81 -72 28 -17 38 -34 53 -82 29 -96 142 -305 211 -394 148 -189 354 -345 536 -408 194 -67 437 -87 622 -51 245 48 429 143 594 306 113 112 178 214 266 411 73 166 95 450 51 655 -12 52 -23 145 -25 205 -12 299 -173 492 -462 555 -71 15 -75 17 -69 35 4 9 19 15 38 15 l33 0 6 253 c7 252 21 507 36 625 l7 62 -798 0 -798 0 6 -92z m1409 -185 c39 -39 80 -133 98 -228 17 -88 26 -303 14 -323 -16 -25 -27 0 -27 61 0 79 -26 268 -44 328 -21 69 -53 127 -81 145 -22 14 -26 14 -49 -3 -29 -21 -52 -65 -77 -148 -23 -71 -49 -235 -49 -302 0 -54 -12 -79 -30 -68 -9 6 -11 31 -5 99 16 212 55 355 116 429 40 48 91 52 134 10z m-1015 -967 c0 -18 -77 -33 -92 -18 -18 18 2 32 48 32 31 0 44 -4 44 -14z m738 -728 c31 -31 -5 -92 -49 -81 -24 7 -34 44 -19 72 12 23 49 28 68 9z m-904 -122 c8 -32 -1 -54 -25 -61 -31 -10 -59 4 -59 30 0 42 10 55 45 55 26 0 34 -5 39 -24z"/>
<path d="M707 3770 c-40 -12 -52 -25 -76 -75 -34 -72 -25 -175 15 -175 23 0 61 -47 68 -83 4 -24 16 -37 43 -52 21 -11 47 -34 58 -52 24 -39 42 -42 51 -7 13 50 -18 117 -78 172 -26 25 -28 52 -3 52 8 0 20 -7 29 -15 11 -12 20 -13 33 -5 10 6 41 18 69 28 l51 18 -13 49 c-7 28 -13 63 -14 79 0 20 -4 27 -14 23 -7 -3 -26 2 -42 12 -29 17 -111 42 -136 40 -7 0 -26 -5 -41 -9z"/>
<path d="M955 3528 c-16 -6 -44 -16 -62 -24 l-32 -13 21 -43 c26 -54 34 -118 18 -148 -12 -23 -12 -23 35 -18 37 5 52 13 75 39 16 19 29 38 30 42 0 4 9 20 20 35 17 23 50 111 50 135 0 11 -120 7 -155 -5z"/>
<path d="M492 3440 c0 -14 2 -19 5 -12 2 6 2 18 0 25 -3 6 -5 1 -5 -13z"/>
<path d="M527 3402 c6 -81 11 -87 12 -15 1 34 -3 64 -7 67 -5 3 -7 -21 -5 -52z"/>
<path d="M560 3425 c-11 -13 -10 -14 4 -9 9 3 16 10 16 15 0 13 -6 11 -20 -6z"/>
<path d="M485 3400 c-18 -8 -17 -9 8 -9 15 -1 27 4 27 9 0 12 -8 12 -35 0z"/>
<path d="M428 3335 c-9 -25 -12 -45 -8 -45 8 0 33 80 27 86 -2 3 -11 -16 -19 -41z"/>
<path d="M504 3368 c-4 -7 -3 -8 4 -4 7 4 12 9 12 12 0 8 -9 4 -16 -8z"/>
<path d="M619 3304 c-48 -85 -65 -92 -163 -68 -26 6 -28 5 -21 -17 11 -36 54 -89 72 -89 9 0 37 13 62 28 25 16 87 44 136 62 50 18 91 34 93 36 2 1 -3 17 -11 37 -19 45 -52 67 -99 67 -35 0 -40 -4 -69 -56z"/>
<path d="M460 3349 c0 -2 7 -22 15 -44 11 -32 14 -35 14 -15 0 14 -6 34 -14 44 -8 11 -15 18 -15 15z"/>
<path d="M450 3310 c0 -7 3 -10 7 -7 3 4 3 10 0 14 -4 3 -7 0 -7 -7z"/>
<path d="M443 3283 c4 -3 10 -3 14 0 3 4 0 7 -7 7 -7 0 -10 -3 -7 -7z"/>
<path d="M510 3280 c0 -7 3 -10 7 -7 3 4 3 10 0 14 -4 3 -7 0 -7 -7z"/>
<path d="M2943 2734 c33 -116 44 -466 19 -574 -24 -97 -54 -183 -89 -254 l-34 -69 52 -48 c36 -33 56 -45 64 -39 14 12 25 3 25 -20 0 -9 13 -29 28 -44 31 -29 42 -25 56 22 4 12 12 22 17 22 19 0 22 -33 4 -63 l-18 -30 45 -41 c235 -213 262 -231 358 -231 56 0 77 6 150 41 129 63 227 144 365 304 70 81 225 341 225 377 0 5 13 42 29 83 15 41 31 92 34 112 l6 37 -207 67 c-114 36 -238 77 -277 90 -38 13 -113 37 -165 53 -52 16 -133 43 -180 59 -113 40 -418 138 -452 146 -14 3 -34 9 -43 12 -14 6 -16 3 -12 -12z"/>
<path d="M2781 1743 c-17 -27 -38 -58 -47 -70 -16 -22 -15 -23 27 -43 65 -29 95 -26 135 14 19 19 34 40 34 48 0 14 -95 98 -110 98 -5 0 -22 -21 -39 -47z"/>
<path d="M2942 1635 c-25 -28 -12 -33 33 -13 29 13 32 23 9 32 -21 8 -17 9 -42 -19z"/>
<path d="M3000 1589 c-19 -10 -44 -19 -55 -20 -11 0 -4 -5 18 -11 43 -12 107 -3 107 15 0 7 -8 17 -18 23 -14 9 -26 8 -52 -7z"/>
<path d="M1580 1232 c0 -5 19 -26 41 -47 35 -32 47 -36 75 -32 34 6 79 33 88 53 3 8 -23 14 -77 18 -45 4 -92 10 -104 13 -13 3 -23 1 -23 -5z"/>
</g>
<g id="layer111" fill="#c9c9c9" stroke="none">
<path d="M0 2200 l0 -2200 2200 0 2200 0 0 2200 0 2200 -934 0 -934 0 -6 -27 c-13 -72 -46 -648 -46 -819 l0 -112 28 -7 c15 -3 65 -24 111 -46 190 -89 319 -302 321 -527 0 -55 3 -63 23 -71 12 -5 144 -48 292 -96 149 -48 322 -105 385 -126 63 -21 237 -76 385 -124 149 -48 276 -88 284 -91 35 -11 -36 -251 -121 -413 -38 -71 -122 -199 -171 -259 -49 -61 -216 -218 -264 -249 -175 -112 -289 -141 -388 -98 -30 13 -147 107 -205 165 -39 39 -46 41 -86 24 -54 -22 -148 -14 -217 19 -28 14 -74 33 -100 43 -26 9 -50 21 -53 26 -3 5 -43 -27 -89 -70 -191 -181 -405 -280 -678 -313 -71 -9 -95 -15 -105 -30 -20 -28 -65 -69 -77 -69 -19 0 20 -20 40 -20 39 0 93 20 120 46 26 24 55 26 55 4 0 -7 -13 -24 -28 -40 -45 -44 -135 -62 -210 -41 -17 5 -32 6 -32 1 0 -9 43 -46 76 -67 18 -10 18 -11 1 -18 -41 -17 -96 21 -133 91 -10 20 -40 57 -66 82 -27 25 -48 51 -48 59 0 15 -11 20 -130 58 -283 91 -548 328 -713 637 -19 34 -40 81 -47 103 -7 22 -16 45 -20 50 -3 6 -12 29 -18 52 -7 24 -20 44 -30 47 -41 13 -125 107 -189 211 -74 120 -103 318 -68 455 22 83 53 138 119 207 l40 43 -26 27 c-33 36 -58 86 -58 117 0 21 -7 27 -54 40 -30 9 -61 16 -69 16 -8 0 -26 9 -41 21 -62 49 -73 131 -28 220 37 74 80 102 149 97 29 -3 61 -12 70 -20 14 -13 129 -58 146 -58 3 0 6 30 9 68 12 161 112 232 262 187 27 -8 55 -20 63 -26 7 -7 16 -10 18 -7 3 2 -4 67 -14 144 -25 178 -39 298 -47 402 l-6 82 -424 0 -424 0 0 -2200z"/>
<path d="M894 4392 c2 -4 5 -48 7 -97 3 -118 49 -446 85 -605 8 -36 17 -75 20 -87 4 -21 10 -23 62 -23 31 0 63 -4 71 -9 30 -19 -1 -129 -65 -232 -21 -34 -21 -37 -6 -53 24 -24 7 -33 -88 -45 -374 -47 -606 -222 -635 -478 -8 -68 2 -176 15 -168 4 3 13 -25 20 -62 6 -37 23 -92 38 -122 30 -61 125 -169 178 -201 25 -16 36 -33 44 -63 45 -175 198 -417 357 -568 162 -152 333 -244 541 -291 139 -31 377 -32 512 -1 391 90 658 320 820 708 70 166 90 431 50 645 -11 58 -22 150 -24 205 -12 250 -100 401 -296 507 -44 24 -72 33 -180 61 -66 16 -75 40 -17 45 l37 3 1 162 c1 194 5 320 19 487 5 69 12 162 16 208 l6 82 -797 0 c-438 0 -794 -3 -791 -8z m1394 -248 c77 -54 124 -208 137 -450 6 -103 5 -122 -8 -127 -22 -8 -27 1 -27 53 0 71 -27 271 -45 336 -37 129 -90 181 -140 134 -49 -46 -115 -299 -115 -445 0 -47 -12 -71 -30 -60 -10 6 -11 33 -6 110 14 219 60 372 131 434 40 34 69 39 103 15z m-1001 -980 c8 -21 -14 -34 -60 -34 -31 0 -38 3 -35 18 3 15 14 19 81 31 4 0 10 -6 14 -15z m741 -736 c30 -30 -7 -95 -47 -80 -49 18 -38 92 14 92 12 0 26 -5 33 -12z m-903 -119 c14 -43 -21 -78 -64 -64 -21 6 -33 38 -24 62 13 34 78 36 88 2z"/>
<path d="M662 3741 c-16 -16 -35 -50 -42 -75 -13 -46 -9 -128 7 -133 44 -15 74 -46 84 -88 9 -34 17 -47 35 -51 24 -6 84 -66 84 -84 0 -16 27 -11 34 6 17 44 -14 124 -70 178 -24 23 -30 36 -24 46 8 13 13 13 39 -1 16 -10 33 -14 38 -9 4 4 32 16 61 26 l54 19 -7 35 c-4 19 -10 52 -13 73 -4 21 -10 38 -14 38 -4 0 -31 11 -60 24 -38 18 -70 25 -115 25 -55 0 -65 -3 -91 -29z"/>
<path d="M955 3527 c-16 -6 -45 -16 -62 -23 l-33 -13 20 -34 c26 -43 37 -126 21 -155 -11 -20 -9 -22 18 -22 49 0 74 18 119 85 33 49 70 138 72 173 0 7 -130 -2 -155 -11z"/>
<path d="M645 3344 c-10 -10 -24 -32 -31 -49 -7 -16 -24 -41 -38 -54 -25 -24 -42 -25 -120 -5 -26 6 -28 5 -21 -17 12 -38 54 -89 75 -89 10 0 25 6 32 14 17 17 125 66 199 91 56 18 57 19 48 49 -12 43 -38 64 -85 72 -32 5 -44 2 -59 -12z"/>
<path d="M2945 2724 c3 -16 12 -65 20 -109 47 -251 17 -480 -93 -715 l-31 -65 46 -40 c28 -25 56 -40 72 -40 20 0 26 -5 26 -21 0 -24 31 -64 50 -64 7 0 18 14 25 30 7 17 17 30 22 30 18 0 21 -33 4 -60 -9 -16 -16 -30 -16 -32 0 -3 46 -45 102 -94 56 -49 113 -100 127 -112 45 -42 111 -66 177 -67 54 0 73 6 155 48 52 26 112 62 134 80 45 36 176 166 217 214 49 58 137 191 172 260 36 71 99 236 110 288 4 17 9 38 12 47 4 13 -5 20 -38 29 -24 6 -56 16 -73 22 -16 7 -37 13 -45 14 -8 1 -23 6 -35 12 -11 5 -45 17 -75 26 -30 9 -62 19 -70 22 -19 8 -17 7 -60 17 -19 5 -41 12 -50 16 -19 10 -111 41 -210 71 -41 12 -95 30 -120 40 -25 9 -106 36 -180 59 -74 23 -143 45 -152 51 -10 5 -25 9 -34 9 -9 0 -30 6 -47 14 -18 7 -52 19 -76 25 -23 7 -49 15 -57 18 -11 4 -13 -2 -9 -23z"/>
<path d="M2799 1762 c-9 -15 -31 -46 -49 -70 l-32 -42 39 -17 c21 -9 55 -17 77 -17 31 0 44 6 67 32 32 36 34 41 16 62 -18 22 -87 80 -95 80 -4 0 -14 -12 -23 -28z"/>
<path d="M2946 1635 c-19 -29 -19 -29 23 -14 25 9 29 14 20 25 -16 20 -24 18 -43 -11z"/>
<path d="M3026 1602 c-3 -4 -24 -15 -46 -22 -39 -13 -40 -15 -19 -22 25 -9 109 0 109 12 0 13 -38 41 -44 32z"/>
<path d="M1580 1229 c0 -4 19 -23 41 -44 36 -32 46 -36 77 -31 20 3 48 18 64 34 l29 28 -106 10 c-58 5 -105 6 -105 3z"/>
</g>
<g id="layer112" fill="#fcb8c6" stroke="none">
<path d="M0 2200 l0 -2200 2200 0 2200 0 0 2200 0 2200 -935 0 c-741 0 -935 -3 -935 -12 0 -7 -4 -51 -9 -98 -6 -47 -13 -148 -16 -225 -3 -77 -10 -192 -15 -255 -5 -63 -10 -172 -10 -242 0 -116 2 -128 18 -128 9 0 63 -22 118 -50 84 -41 112 -61 160 -114 100 -108 164 -270 164 -412 0 -49 19 -84 46 -84 12 0 205 -60 224 -70 9 -4 31 -11 50 -15 19 -4 40 -10 45 -14 6 -4 53 -20 105 -35 52 -15 118 -36 145 -46 28 -10 88 -31 135 -46 47 -15 118 -38 157 -51 40 -13 81 -26 90 -28 24 -5 114 -36 133 -45 8 -4 39 -13 69 -20 30 -7 66 -19 80 -26 14 -8 43 -17 64 -20 l38 -7 -4 -56 c-4 -48 -27 -124 -81 -266 -6 -16 -26 -55 -44 -86 -17 -31 -32 -59 -32 -63 0 -9 -109 -167 -129 -187 -9 -9 -36 -40 -61 -70 -25 -29 -56 -63 -70 -75 -96 -84 -121 -105 -170 -136 -30 -19 -77 -44 -105 -57 -27 -12 -57 -26 -66 -31 -35 -19 -101 -21 -160 -5 -62 15 -67 19 -260 192 -24 22 -27 23 -58 7 -47 -23 -154 -15 -223 18 -29 14 -73 33 -98 43 -25 9 -50 21 -56 26 -8 7 -20 -1 -39 -22 -106 -127 -359 -282 -520 -319 -27 -7 -57 -14 -65 -17 -23 -9 -63 -15 -175 -28 -39 -5 -56 -13 -79 -38 -16 -18 -40 -39 -54 -48 l-24 -17 21 -7 c33 -10 116 13 146 41 28 26 40 30 50 14 12 -19 -26 -61 -72 -82 -36 -16 -60 -19 -114 -16 -38 3 -69 2 -69 -3 0 -8 31 -34 66 -55 28 -17 6 -35 -30 -26 -37 10 -103 77 -111 113 -4 16 -10 29 -14 29 -13 0 -83 74 -92 97 -5 15 -22 26 -51 33 -294 76 -562 284 -746 579 -38 61 -102 194 -102 212 0 10 -4 20 -9 23 -5 3 -12 21 -15 40 -5 24 -17 42 -39 58 -59 41 -177 172 -177 196 0 7 -7 20 -15 29 -8 10 -15 21 -15 26 0 4 -7 21 -16 38 -44 87 -60 300 -29 390 25 69 48 119 56 119 4 0 10 8 13 18 4 9 24 37 46 61 32 36 37 46 26 55 -24 19 -66 95 -66 120 0 32 -13 41 -89 59 -68 17 -94 35 -117 79 -38 73 13 224 84 254 46 19 117 14 156 -11 28 -19 136 -59 141 -53 2 2 5 32 7 68 6 124 77 201 182 200 37 -1 112 -21 144 -38 25 -15 25 -14 12 59 -18 104 -21 125 -30 214 -5 50 -12 111 -16 138 -6 44 -7 68 -12 170 l-2 37 -425 0 -425 0 0 -2200z"/>
<path d="M966 4278 c7 -181 46 -615 60 -660 4 -14 16 -18 50 -18 54 0 124 -33 124 -58 -1 -29 -44 -124 -84 -185 -21 -32 -39 -68 -40 -80 -1 -19 -12 -24 -86 -41 -126 -28 -325 -92 -357 -115 -15 -10 -47 -31 -70 -45 -51 -31 -122 -123 -151 -196 -23 -58 -43 -190 -35 -233 3 -14 1 -27 -5 -30 -13 -9 19 -153 48 -211 29 -58 116 -155 175 -196 34 -24 44 -37 49 -69 7 -46 64 -170 118 -259 21 -34 38 -66 38 -70 0 -4 10 -18 23 -32 12 -14 35 -44 51 -68 29 -43 144 -156 205 -202 18 -14 38 -29 45 -35 31 -27 78 -54 151 -89 44 -21 91 -44 105 -51 21 -10 45 -18 95 -31 6 -1 21 -4 35 -7 14 -3 48 -11 75 -17 76 -19 356 -16 433 4 35 9 74 16 87 16 13 0 27 4 30 10 3 5 15 10 25 10 33 0 195 76 272 127 319 212 508 566 508 954 0 64 -5 141 -10 170 -6 30 -13 77 -16 104 -4 28 -9 54 -12 59 -3 5 -7 37 -9 70 -4 64 -24 147 -49 206 -80 188 -265 353 -446 400 -40 10 -68 19 -61 19 7 1 24 13 39 28 l27 27 -12 110 c-6 61 -17 156 -23 211 -6 55 -17 117 -24 138 -7 20 -11 37 -8 37 2 0 -8 24 -22 52 -41 81 -73 97 -112 55 -12 -13 -22 -27 -22 -33 0 -5 -6 -21 -14 -36 -19 -37 -45 -128 -51 -180 -18 -148 -33 -249 -38 -255 -4 -3 -13 0 -22 7 -22 18 -20 141 5 270 41 213 89 307 168 329 26 8 36 5 70 -20 37 -27 63 -70 98 -164 10 -26 12 -17 19 80 4 61 11 139 16 175 5 36 9 82 9 103 l0 37 -740 0 -739 0 5 -122z m330 -1109 c3 -5 0 -17 -7 -25 -14 -17 -105 -16 -103 1 3 25 96 45 110 24z m726 -736 c38 -34 19 -83 -35 -88 -40 -5 -48 88 -9 98 9 3 19 5 21 6 3 0 13 -6 23 -16z m-900 -117 c15 -21 8 -55 -13 -66 -45 -24 -89 12 -74 59 9 30 69 34 87 7z"/>
<path d="M664 3742 c-48 -47 -56 -91 -32 -162 12 -36 26 -60 34 -60 13 0 34 -36 47 -80 3 -8 27 -23 54 -32 53 -19 79 -53 68 -89 -8 -24 20 -26 29 -3 16 43 -36 162 -83 191 -25 16 -17 47 10 40 23 -6 48 44 62 129 14 81 8 88 -87 92 -69 4 -74 3 -102 -26z"/>
<path d="M3194 2623 c26 -142 39 -218 51 -283 8 -41 25 -140 39 -220 14 -80 32 -183 41 -230 24 -123 42 -240 37 -240 -2 0 -61 44 -130 97 -232 179 -305 233 -314 233 -5 0 -24 -33 -42 -72 l-34 -73 45 -40 c29 -25 54 -40 71 -40 22 0 27 -5 28 -24 1 -23 35 -61 54 -61 4 0 13 14 20 30 7 17 17 30 22 30 18 0 20 -33 3 -63 l-18 -30 29 -24 c50 -42 136 -117 168 -146 86 -80 166 -114 237 -103 45 7 204 81 229 106 3 3 37 30 75 61 88 71 213 212 265 300 14 23 30 47 37 54 20 21 94 176 90 188 -2 7 -13 -6 -23 -28 -44 -94 -139 -191 -290 -298 -93 -64 -228 -125 -239 -108 -2 5 -15 75 -29 157 -14 82 -39 226 -56 319 -36 200 -80 447 -80 457 0 7 -53 25 -152 53 l-47 13 5 -32 c3 -17 14 -76 24 -131 10 -55 21 -116 25 -135 3 -19 13 -71 21 -115 8 -44 26 -143 39 -220 13 -77 31 -178 40 -225 9 -47 19 -104 22 -126 5 -41 5 -42 -21 -37 -33 7 -33 7 -46 84 -5 35 -19 114 -30 174 -37 202 -49 269 -74 415 -27 153 -50 283 -62 338 -4 19 -13 32 -22 32 -11 0 -13 -8 -8 -37z"/>
<path d="M2946 1634 l-19 -26 24 7 c31 10 43 21 35 34 -11 16 -19 13 -40 -15z"/>
</g>
<g id="layer113" fill="#ffffff" stroke="none">
<path d="M0 2200 l0 -2200 2200 0 2200 0 0 2200 0 2200 -934 0 -933 0 -7 -47 c-3 -27 -11 -129 -16 -228 -6 -99 -15 -238 -20 -309 -6 -72 -10 -185 -10 -253 0 -111 2 -123 18 -123 9 0 63 -22 118 -50 84 -41 112 -61 160 -114 100 -108 164 -270 164 -412 0 -49 19 -84 46 -84 12 0 205 -60 224 -70 9 -4 31 -11 50 -15 19 -4 40 -10 45 -14 6 -4 53 -20 105 -35 52 -15 118 -36 145 -46 28 -10 88 -31 135 -46 47 -15 118 -38 157 -51 40 -13 81 -26 90 -28 24 -5 114 -36 133 -45 8 -4 39 -13 69 -20 30 -7 66 -19 80 -26 14 -8 43 -17 64 -20 l38 -7 -4 -56 c-4 -48 -27 -124 -81 -266 -6 -16 -26 -55 -44 -86 -17 -31 -32 -59 -32 -63 0 -9 -109 -167 -129 -187 -9 -9 -36 -40 -61 -70 -25 -29 -56 -63 -70 -75 -96 -84 -121 -105 -170 -136 -30 -19 -77 -44 -105 -57 -27 -12 -57 -26 -66 -31 -67 -36 -201 -11 -264 49 -22 20 -72 65 -111 99 l-71 62 -33 -16 c-46 -23 -153 -14 -222 18 -29 14 -73 33 -98 43 -25 9 -50 21 -56 26 -8 7 -20 0 -37 -20 -40 -48 -155 -143 -232 -192 -80 -51 -217 -112 -290 -129 -27 -7 -57 -14 -65 -18 -22 -8 -16 -7 -128 -22 -95 -12 -105 -16 -129 -44 -14 -17 -37 -38 -50 -47 l-25 -17 21 -7 c33 -10 116 13 146 41 28 26 40 30 50 14 12 -19 -26 -61 -72 -82 -36 -16 -60 -19 -114 -16 -38 3 -69 2 -69 -3 0 -8 31 -34 66 -55 28 -17 6 -35 -30 -26 -31 8 -106 78 -106 99 0 8 -23 38 -51 66 -28 29 -55 62 -59 74 -6 15 -23 26 -52 33 -294 76 -562 284 -746 579 -38 61 -102 194 -102 212 0 10 -4 20 -9 23 -5 3 -12 21 -15 40 -5 24 -17 42 -39 58 -60 41 -177 172 -177 197 0 6 -8 20 -18 31 -15 17 -30 54 -63 164 -15 49 -11 238 6 287 25 69 48 119 56 119 4 0 10 8 13 18 4 9 24 37 46 61 32 36 37 46 26 55 -24 19 -64 92 -68 122 -3 26 -9 31 -63 48 -88 27 -107 38 -132 75 -33 49 -31 112 8 190 24 49 38 65 67 77 46 19 117 14 156 -11 28 -19 136 -59 141 -53 2 2 5 32 7 68 6 124 77 201 182 200 37 -1 112 -21 144 -38 25 -15 25 -14 12 59 -18 104 -21 125 -30 214 -5 50 -12 111 -16 138 -6 44 -7 68 -12 170 l-2 37 -425 0 -425 0 0 -2200z"/>
<path d="M966 4278 c7 -181 46 -615 60 -660 4 -14 16 -18 50 -18 54 0 124 -33 124 -58 -1 -29 -44 -124 -84 -185 -21 -32 -39 -68 -40 -80 -1 -19 -12 -24 -86 -41 -126 -28 -325 -92 -357 -115 -15 -10 -47 -31 -70 -45 -51 -31 -122 -123 -151 -196 -23 -57 -44 -196 -35 -231 5 -18 8 -16 43 15 72 65 208 101 350 93 194 -11 304 -89 304 -217 0 -56 -13 -87 -58 -138 -31 -35 -141 -94 -205 -108 -76 -18 -208 -18 -261 1 -24 8 -45 13 -48 10 -8 -8 46 -62 94 -96 33 -22 43 -36 48 -68 7 -46 64 -170 118 -259 21 -34 38 -66 38 -70 0 -4 10 -18 23 -32 12 -14 35 -44 51 -68 29 -43 144 -156 205 -202 18 -14 38 -29 45 -35 31 -27 78 -54 151 -89 44 -21 91 -44 105 -51 21 -10 45 -18 95 -31 6 -1 21 -4 35 -7 14 -3 48 -11 75 -17 76 -19 356 -16 433 4 35 9 74 16 87 16 13 0 27 4 30 10 3 5 15 10 25 10 33 0 195 76 273 128 317 210 507 567 507 953 0 64 -5 141 -10 170 -6 30 -13 77 -16 104 -4 28 -9 54 -12 59 -3 5 -7 37 -9 70 -4 64 -24 147 -49 206 -80 188 -265 353 -446 400 -40 10 -68 19 -61 19 7 1 24 13 39 28 l27 27 -12 115 c-27 251 -33 298 -51 358 -32 105 -63 152 -101 153 -16 0 -59 -40 -59 -56 0 -5 -6 -21 -14 -36 -19 -37 -45 -128 -51 -180 -18 -148 -33 -249 -38 -255 -4 -3 -13 0 -22 7 -22 18 -20 141 5 270 41 213 89 307 168 329 26 8 36 5 70 -20 37 -27 63 -70 98 -164 10 -26 12 -17 19 80 4 61 11 139 16 175 5 36 9 82 9 103 l0 37 -740 0 -739 0 5 -122z m329 -1108 c4 -6 1 -18 -6 -26 -14 -17 -105 -16 -103 1 3 26 95 47 109 25z m1260 -140 c84 -12 145 -34 206 -73 80 -52 109 -116 94 -213 -12 -80 -120 -169 -266 -218 -155 -52 -269 -58 -424 -21 -181 43 -268 119 -268 236 0 50 4 63 37 107 46 63 104 102 211 141 125 45 274 60 410 41z m-533 -597 c38 -34 19 -83 -35 -88 -40 -5 -48 88 -9 98 9 3 19 5 21 6 3 0 13 -6 23 -16z m-900 -117 c15 -21 8 -55 -13 -66 -45 -24 -89 12 -74 59 9 30 69 34 87 7z"/>
<path d="M673 3753 c-12 -10 -31 -39 -42 -64 l-21 -46 21 -62 c13 -36 27 -61 35 -61 13 0 34 -36 47 -80 3 -8 27 -23 54 -32 53 -19 79 -53 68 -89 -8 -24 20 -26 29 -3 16 43 -36 162 -83 191 -25 16 -17 47 10 40 23 -6 48 44 62 129 14 81 8 88 -86 92 -57 2 -76 -1 -94 -15z"/>
<path d="M1077 3488 c-34 -59 -101 -132 -142 -158 -42 -26 -46 -50 -9 -50 38 0 60 15 102 73 36 48 79 137 67 137 -3 0 -1 9 5 20 20 38 2 20 -23 -22z"/>
<path d="M435 3219 c9 -30 53 -89 66 -89 6 0 8 4 4 10 -3 5 1 25 9 44 14 33 14 34 -12 39 -15 3 -38 8 -51 13 -21 6 -23 5 -16 -17z"/>
<path d="M2860 3020 c0 -7 3 -10 7 -7 3 4 3 10 0 14 -4 3 -7 0 -7 -7z"/>
<path d="M3194 2623 c26 -142 39 -218 51 -283 8 -41 25 -140 39 -220 14 -80 32 -183 41 -230 24 -123 42 -240 37 -240 -2 0 -61 44 -130 97 -232 179 -305 233 -314 233 -5 0 -24 -32 -42 -72 l-33 -71 44 -41 c29 -27 54 -41 71 -41 22 0 27 -5 28 -24 1 -23 35 -61 54 -61 4 0 13 14 20 30 7 17 17 30 22 30 18 0 20 -33 3 -63 l-18 -30 29 -24 c50 -42 136 -117 168 -146 86 -80 166 -114 237 -103 45 7 206 82 229 106 3 3 34 29 70 57 97 77 196 190 286 328 58 89 116 203 111 218 -2 7 -13 -6 -23 -28 -44 -94 -139 -191 -290 -298 -93 -64 -228 -125 -239 -108 -2 5 -15 75 -29 157 -14 82 -39 226 -56 319 -36 200 -80 447 -80 457 0 7 -53 25 -152 53 l-47 13 5 -32 c3 -17 14 -76 24 -131 10 -55 21 -116 25 -135 3 -19 13 -71 21 -115 8 -44 26 -143 39 -220 13 -77 31 -178 40 -225 9 -47 19 -104 22 -126 5 -41 5 -42 -21 -37 -33 7 -33 7 -46 84 -5 35 -19 114 -30 174 -37 202 -49 269 -74 415 -27 153 -50 283 -62 338 -4 19 -13 32 -22 32 -11 0 -13 -8 -8 -37z"/>
<path d="M2810 1780 c0 -6 -18 -33 -40 -61 -22 -28 -40 -57 -40 -65 0 -8 22 -20 54 -29 50 -15 58 -15 85 0 17 8 38 26 47 39 19 29 10 46 -48 94 -42 33 -58 39 -58 22z"/>
<path d="M2947 1635 c-20 -28 -18 -30 18 -13 14 6 24 16 22 22 -6 19 -22 15 -40 -9z"/>
<path d="M2985 1581 c-37 -16 -38 -18 -17 -25 12 -4 37 -4 55 0 17 4 35 7 40 6 11 -3 8 13 -5 26 -16 16 -25 15 -73 -7z"/>
<path d="M1616 1192 c35 -33 47 -38 80 -36 34 3 96 45 83 58 -2 2 -49 7 -104 11 l-100 7 41 -40z"/>
</g>


</svg>