<?xml version="1.0" standalone="no"?><!DOCTYPE svg PUBLIC "-//W3C//DTD SVG 1.1//EN" "http://www.w3.org/Graphics/SVG/1.1/DTD/svg11.dtd"><svg t="1603515364631" class="icon" viewBox="0 0 1024 1024" version="1.1" xmlns="http://www.w3.org/2000/svg" p-id="1177" xmlns:xlink="http://www.w3.org/1999/xlink" width="200" height="200"><defs><style type="text/css"></style></defs><path d="M894.8 704.2h-3.2c-34.8 0-63 28.2-63 63v64.7H192v-64.7c0-34.8-28.2-63-63-63-35.5 0-64.6 29.1-64.6 64.6v99.6c0 50.1 41 91.1 91.1 91.1h712.6c50.1 0 91.1-41 91.1-91.1v-99.6c0.1-35.5-28.9-64.6-64.4-64.6zM248.2 393.1c24.9 24.9 65.6 24.9 90.5 0l111.6-111.6v359.9c0 34.5 28.3 62.8 62.8 62.8s62.8-28.3 62.8-62.8V283L686 393.1c24.9 24.9 65.6 24.9 90.5 0 24.9-24.9 24.9-65.6 0-90.5L557.6 83.9c-12.5-12.5-28.9-18.7-45.3-18.7s-32.8 6.2-45.3 18.7L248.2 302.7c-24.9 24.8-24.9 65.5 0 90.4z" fill="#555555" p-id="1178"></path></svg>