<?xml version="1.0" standalone="no"?><!DOCTYPE svg PUBLIC "-//W3C//DTD SVG 1.1//EN" "http://www.w3.org/Graphics/SVG/1.1/DTD/svg11.dtd"><svg t="1603514865669" class="icon" viewBox="0 0 1024 1024" version="1.1" xmlns="http://www.w3.org/2000/svg" p-id="5374" xmlns:xlink="http://www.w3.org/1999/xlink" width="200" height="200"><defs><style type="text/css"></style></defs><path d="M916.8 610.24a48 48 0 0 0-48 48v210.08a11.68 11.68 0 0 1-11.68 11.68H166.88a12 12 0 0 1-11.68-11.68V658.24a48 48 0 0 0-96 0v210.08A107.84 107.84 0 0 0 166.88 976h690.24a107.84 107.84 0 0 0 107.68-107.68V658.24a48 48 0 0 0-48-48z" fill="#7E99AF" p-id="5375"></path><path d="M321.12 354.88L464 211.84v401.28a48 48 0 0 0 96 0V211.84l142.88 143.04a48 48 0 0 0 33.92 13.92 48 48 0 0 0 33.92-81.92l-224.8-224a49.28 49.28 0 0 0-67.84 0l-224 224.8a48 48 0 1 0 67.84 68z" fill="#7E99AF" p-id="5376"></path></svg>