<?xml version="1.0" standalone="no"?><!DOCTYPE svg PUBLIC "-//W3C//DTD SVG 1.1//EN" "http://www.w3.org/Graphics/SVG/1.1/DTD/svg11.dtd"><svg t="1603515107031" class="icon" viewBox="0 0 1024 1024" version="1.1" xmlns="http://www.w3.org/2000/svg" p-id="6424" xmlns:xlink="http://www.w3.org/1999/xlink" width="200" height="200"><defs><style type="text/css"></style></defs><path d="M931.103073 651.549463a93.101 93.101 0 0 1 93.101 93.100999v186.225269a93.101 93.101 0 0 1-93.101 93.124269H93.101a93.124269 93.124269 0 0 1-92.984653-88.470382l-0.116347-4.653887v-186.225269A93.101 93.101 0 0 1 93.101 651.549463v186.225268a93.101 93.101 0 0 0 93.124269 93.101h651.776805a93.101 93.101 0 0 0 93.100999-93.101V651.549463zM512.113671 0.005352c20.942489 0 35.741848 8.376996 47.097332 19.476515l264.806142 246.260404c17.661499 17.21938 18.569007 44.514424 2.792332 62.874007l-2.792332 2.955218a48.609845 48.609845 0 0 1-67.481354 0L559.862547 139.668486V605.243292c0 24.549251-19.499784 44.67731-44.211922 46.445787l-3.536954 0.116348a47.120601 47.120601 0 0 1-47.772145-46.538865V139.645217l-196.649974 191.809932a48.609845 48.609845 0 0 1-64.456328 2.722524l-3.048296-2.722524a45.724435 45.724435 0 0 1 0-65.736147L464.155371 19.481867A66.597116 66.597116 0 0 1 512.090402 0.005352z" p-id="6425"></path></svg>