<?xml version="1.0" standalone="no"?><!DOCTYPE svg PUBLIC "-//W3C//DTD SVG 1.1//EN" "http://www.w3.org/Graphics/SVG/1.1/DTD/svg11.dtd"><svg t="1603514757981" class="icon" viewBox="0 0 1024 1024" version="1.1" xmlns="http://www.w3.org/2000/svg" p-id="1472" xmlns:xlink="http://www.w3.org/1999/xlink" width="200" height="200"><defs><style type="text/css"></style></defs><path d="M346.8 300.1l131.6-128.8v453.6c0 19.6 14 33.6 33.6 33.6s33.6-14 33.6-33.6V174.1l128.8 126c5.6 5.6 14 8.4 25.2 8.4 8.4 0 16.8-2.8 25.2-8.4 5.6-5.6 11.2-14 11.2-22.4s-2.8-16.8-11.2-22.4l-187.6-182c-5.6-5.6-14-8.4-22.4-8.4H512c-8.4 0-16.8 2.8-22.4 8.4L302 255.3c-5.6 5.6-11.2 14-11.2 22.4s2.8 16.8 11.2 22.4c11.2 14 30.8 14 44.8 0z" fill="#6D7686" p-id="1473"></path><path d="M848 378.5H716.4v67.2H848c25.2 0 44.8 19.6 44.8 42v358.4c0 22.4-19.6 42-44.8 42H176c-25.2 0-44.8-19.6-44.8-42V487.7c0-22.4 19.6-42 44.8-42h131.6v-67.2H176c-61.6 0-112 47.6-112 109.2v358.4c0 58.8 50.4 109.2 112 109.2h672c61.6 0 112-47.6 112-109.2V487.7c0-61.6-50.4-109.2-112-109.2z" fill="#6D7686" p-id="1474"></path></svg>