<?xml version="1.0" standalone="no"?><!DOCTYPE svg PUBLIC "-//W3C//DTD SVG 1.1//EN" "http://www.w3.org/Graphics/SVG/1.1/DTD/svg11.dtd"><svg t="1603514770225" class="icon" viewBox="0 0 1099 1024" version="1.1" xmlns="http://www.w3.org/2000/svg" p-id="2288" xmlns:xlink="http://www.w3.org/1999/xlink" width="214.6484375" height="200"><defs><style type="text/css"></style></defs><path d="M972.8 1020.207407H113.777778C53.096296 1020.207407 3.792593 970.903704 3.792593 910.222222V682.666667c0-60.681481 49.303704-109.985185 109.985185-109.985186h91.022222c18.962963 0 34.133333 15.17037 34.133333 34.133334s-15.17037 34.133333-34.133333 34.133333H113.777778c-22.755556 0-41.718519 18.962963-41.718519 41.718519v227.555555c0 22.755556 18.962963 41.718519 41.718519 41.718519h859.022222c22.755556 0 41.718519-18.962963 41.718519-41.718519V682.666667c0-22.755556-18.962963-41.718519-41.718519-41.718519h-89.125926c-18.962963 0-34.133333-15.17037-34.133333-34.133333s15.17037-34.133333 34.133333-34.133334h89.125926c60.681481 0 109.985185 49.303704 109.985185 109.985186v227.555555c0 60.681481-49.303704 109.985185-109.985185 109.985185z" fill="#68686B" p-id="2289"></path><path d="M358.4 893.155556h-159.288889c-18.962963 0-34.133333-15.17037-34.133333-34.133334s15.17037-34.133333 34.133333-34.133333H360.296296c18.962963 0 34.133333 15.17037 34.133334 34.133333s-17.066667 34.133333-36.02963 34.133334zM559.407407 741.451852c-18.962963 0-34.133333-15.17037-34.133333-34.133333V219.97037c0-18.962963 15.17037-34.133333 34.133333-34.133333s34.133333 15.17037 34.133334 34.133333v487.348149c0 18.962963-15.17037 34.133333-34.133334 34.133333z" fill="#68686B" p-id="2290"></path><path d="M263.585185 364.088889c-7.585185 0-17.066667-3.792593-22.755555-9.481482-13.274074-13.274074-13.274074-34.133333 0-47.407407L521.481481 20.859259c20.859259-20.859259 53.096296-20.859259 73.955556 0l293.925926 286.340741c13.274074 13.274074 13.274074 34.133333 0 47.407407s-34.133333 13.274074-47.407407 0L559.407407 77.748148 286.340741 354.607407c-5.688889 7.585185-15.17037 9.481481-22.755556 9.481482z" fill="#68686B" p-id="2291"></path></svg>